G04 #@! TF.GenerationSoftware,KiCad,Pcbnew,(5.1.5)-3*
G04 #@! TF.CreationDate,2021-12-07T11:44:26+01:00*
G04 #@! TF.ProjectId,stitched capcoupler,73746974-6368-4656-9420-636170636f75,rev?*
G04 #@! TF.SameCoordinates,Original*
G04 #@! TF.FileFunction,Paste,Top*
G04 #@! TF.FilePolarity,Positive*
%FSLAX46Y46*%
G04 Gerber Fmt 4.6, Leading zero omitted, Abs format (unit mm)*
G04 Created by KiCad (PCBNEW (5.1.5)-3) date 2021-12-07 11:44:26*
%MOMM*%
%LPD*%
G04 APERTURE LIST*
%ADD10R,2.000000X2.900000*%
%ADD11R,0.500000X1.000000*%
%ADD12R,2.900000X2.000000*%
%ADD13R,1.000000X0.500000*%
%ADD14R,6.350000X2.200000*%
%ADD15R,1.500000X4.000000*%
%ADD16R,1.400000X4.000000*%
%ADD17R,4.000000X1.400000*%
%ADD18R,4.000000X1.500000*%
%ADD19R,2.000000X3.500000*%
G04 APERTURE END LIST*
D10*
X91000000Y20000000D03*
D11*
X95000000Y20000000D03*
D12*
X75000000Y4000000D03*
D13*
X75000000Y0D03*
D14*
X75000000Y16000000D03*
X75000000Y20000000D03*
D15*
X72460000Y-1000000D03*
X77540000Y-1000000D03*
D16*
X75000000Y-1000000D03*
D17*
X97500000Y20000000D03*
D18*
X97500000Y22540000D03*
X97500000Y17460000D03*
D19*
X80000000Y10000000D03*
X76000000Y10000000D03*
D18*
X52500000Y22540000D03*
X52500000Y17460000D03*
D17*
X52500000Y20000000D03*
D10*
X60000000Y20000000D03*
D11*
X56000000Y20000000D03*
D10*
X91000000Y-12500000D03*
D11*
X95000000Y-12500000D03*
D12*
X75000000Y-28500000D03*
D13*
X75000000Y-32500000D03*
D14*
X75000000Y-16500000D03*
X75000000Y-12500000D03*
D15*
X72460000Y-33500000D03*
X77540000Y-33500000D03*
D16*
X75000000Y-33500000D03*
D17*
X97500000Y-12500000D03*
D18*
X97500000Y-9960000D03*
X97500000Y-15040000D03*
D19*
X80000000Y-22500000D03*
X76000000Y-22500000D03*
D18*
X52500000Y-9960000D03*
X52500000Y-15040000D03*
D17*
X52500000Y-12500000D03*
D10*
X60000000Y-12500000D03*
D11*
X56000000Y-12500000D03*
D13*
X75000000Y-65000000D03*
D12*
X75000000Y-61000000D03*
D11*
X95000000Y-45000000D03*
D10*
X91000000Y-45000000D03*
D11*
X56000000Y-45000000D03*
D10*
X60000000Y-45000000D03*
D14*
X75000000Y-45000000D03*
X75000000Y-49000000D03*
D19*
X76000000Y-55000000D03*
X80000000Y-55000000D03*
D17*
X52500000Y-45000000D03*
D18*
X52500000Y-47540000D03*
X52500000Y-42460000D03*
X97500000Y-47540000D03*
X97500000Y-42460000D03*
D17*
X97500000Y-45000000D03*
D16*
X75000000Y-66000000D03*
D15*
X77540000Y-66000000D03*
X72460000Y-66000000D03*
M02*
