M48
; DRILL file {KiCad (5.1.5)-3} date 07/12/2021 11:44:29
; FORMAT={-:-/ absolute / inch / decimal}
; #@! TF.CreationDate,2021-12-07T11:44:29+01:00
; #@! TF.GenerationSoftware,Kicad,Pcbnew,(5.1.5)-3
; #@! TF.FileFunction,Plated,1,2,PTH
FMAT,2
INCH
T1C0.0157
%
G90
G05
T1
X2.0079Y0.9843
X2.0079Y-0.0945
X2.0079Y-0.2953
X2.0079Y-1.378
X2.0079Y-1.5748
X2.0472Y-0.0945
X2.0472Y-1.378
X2.0669Y1.0827
X2.0669Y0.9843
X2.0669Y0.5906
X2.0669Y0.4921
X2.0669Y0.3937
X2.0669Y0.2953
X2.0669Y0.1969
X2.0669Y0.0984
X2.0669Y0.0
X2.0669Y-0.1969
X2.0669Y-0.2953
X2.0669Y-0.689
X2.0669Y-0.7874
X2.0669Y-0.8858
X2.0669Y-0.9843
X2.0669Y-1.0827
X2.0669Y-1.1811
X2.0669Y-1.2795
X2.0669Y-1.4764
X2.0669Y-1.5748
X2.0669Y-1.9685
X2.0669Y-2.0669
X2.0669Y-2.1654
X2.0669Y-2.2638
X2.0669Y-2.3622
X2.0669Y-2.4606
X2.0669Y-2.5591
X2.0866Y-0.0945
X2.0866Y-1.378
X2.126Y-0.0945
X2.126Y-1.378
X2.1654Y1.0827
X2.1654Y0.9843
X2.1654Y0.5906
X2.1654Y0.0
X2.1654Y-0.0945
X2.1654Y-0.1969
X2.1654Y-0.2953
X2.1654Y-0.689
X2.1654Y-1.2795
X2.1654Y-1.378
X2.1654Y-1.4764
X2.1654Y-1.5748
X2.1654Y-1.9685
X2.1654Y-2.5591
X2.2047Y-0.0945
X2.2047Y-1.378
X2.2441Y-0.0945
X2.2441Y-1.378
X2.2638Y1.0827
X2.2638Y0.9843
X2.2638Y0.5906
X2.2638Y0.0
X2.2638Y-0.1969
X2.2638Y-0.2953
X2.2638Y-0.689
X2.2638Y-1.2795
X2.2638Y-1.4764
X2.2638Y-1.5748
X2.2638Y-1.9685
X2.2638Y-2.5591
X2.2835Y-0.0945
X2.2835Y-1.378
X2.3228Y-0.0945
X2.3228Y-1.378
X2.3622Y1.0827
X2.3622Y0.9843
X2.3622Y0.5906
X2.3622Y0.4921
X2.3622Y0.3937
X2.3622Y0.2953
X2.3622Y0.1969
X2.3622Y0.0984
X2.3622Y0.0
X2.3622Y-0.0945
X2.3622Y-0.1969
X2.3622Y-0.2953
X2.3622Y-0.689
X2.3622Y-0.7874
X2.3622Y-0.8858
X2.3622Y-0.9843
X2.3622Y-1.0827
X2.3622Y-1.1811
X2.3622Y-1.2795
X2.3622Y-1.378
X2.3622Y-1.4764
X2.3622Y-1.5748
X2.3622Y-1.9685
X2.3622Y-2.0669
X2.3622Y-2.1654
X2.3622Y-2.2638
X2.3622Y-2.3622
X2.3622Y-2.4606
X2.3622Y-2.5591
X2.4016Y-0.0945
X2.4016Y-1.378
X2.4409Y-0.0945
X2.4409Y-1.378
X2.4606Y1.0827
X2.4606Y0.9843
X2.4606Y0.5906
X2.4606Y0.4921
X2.4606Y0.3937
X2.4606Y0.2953
X2.4606Y0.1969
X2.4606Y0.0984
X2.4606Y0.0
X2.4606Y-0.1969
X2.4606Y-0.2953
X2.4606Y-0.689
X2.4606Y-0.7874
X2.4606Y-0.8858
X2.4606Y-0.9843
X2.4606Y-1.0827
X2.4606Y-1.1811
X2.4606Y-1.2795
X2.4606Y-1.4764
X2.4606Y-1.5748
X2.4606Y-1.9685
X2.4606Y-2.0669
X2.4606Y-2.1654
X2.4606Y-2.2638
X2.4606Y-2.3622
X2.4606Y-2.4606
X2.4606Y-2.5591
X2.4803Y-0.0945
X2.4803Y-1.378
X2.5197Y-0.0945
X2.5197Y-1.378
X2.5591Y1.0827
X2.5591Y0.9843
X2.5591Y0.5906
X2.5591Y0.1969
X2.5591Y0.0984
X2.5591Y0.0
X2.5591Y-0.0945
X2.5591Y-0.1969
X2.5591Y-0.2953
X2.5591Y-0.689
X2.5591Y-1.0827
X2.5591Y-1.1811
X2.5591Y-1.2795
X2.5591Y-1.378
X2.5591Y-1.4764
X2.5591Y-1.5748
X2.5591Y-1.9685
X2.5591Y-2.3622
X2.5591Y-2.4606
X2.5591Y-2.5591
X2.5984Y-0.0945
X2.5984Y-1.378
X2.6378Y-0.0945
X2.6378Y-1.378
X2.6575Y1.0827
X2.6575Y0.9843
X2.6575Y0.5906
X2.6575Y0.1969
X2.6575Y0.0984
X2.6575Y0.0
X2.6575Y-0.1969
X2.6575Y-0.2953
X2.6575Y-0.689
X2.6575Y-1.0827
X2.6575Y-1.1811
X2.6575Y-1.2795
X2.6575Y-1.4764
X2.6575Y-1.5748
X2.6575Y-1.9685
X2.6575Y-2.3622
X2.6575Y-2.4606
X2.6575Y-2.5591
X2.6772Y-0.0945
X2.6772Y-1.378
X2.7165Y-0.0945
X2.7165Y-1.378
X2.7559Y1.0827
X2.7559Y0.9843
X2.7559Y0.5906
X2.7559Y0.1969
X2.7559Y0.0984
X2.7559Y0.0
X2.7559Y-0.0945
X2.7559Y-0.1969
X2.7559Y-0.2953
X2.7559Y-0.689
X2.7559Y-1.0827
X2.7559Y-1.1811
X2.7559Y-1.2795
X2.7559Y-1.378
X2.7559Y-1.4764
X2.7559Y-1.5748
X2.7559Y-1.9685
X2.7559Y-2.3622
X2.7559Y-2.4606
X2.7559Y-2.5591
X2.7953Y-0.0945
X2.7953Y-1.378
X2.8346Y-0.0945
X2.8346Y-1.378
X2.8543Y1.0827
X2.8543Y0.9843
X2.8543Y-0.1969
X2.8543Y-0.2953
X2.8543Y-1.4764
X2.8543Y-1.5748
X2.9528Y1.0827
X2.9528Y0.9843
X2.9528Y-0.1969
X2.9528Y-0.2953
X2.9528Y-1.4764
X2.9528Y-1.5748
X3.0512Y1.0827
X3.0512Y0.9843
X3.0512Y-0.1969
X3.0512Y-0.2953
X3.0512Y-1.4764
X3.0512Y-1.5748
X3.0945Y-0.0945
X3.1102Y-1.378
X3.1339Y-0.0945
X3.1496Y1.0827
X3.1496Y0.9843
X3.1496Y0.5906
X3.1496Y0.0984
X3.1496Y0.0
X3.1496Y-0.1969
X3.1496Y-0.2953
X3.1496Y-0.689
X3.1496Y-1.1811
X3.1496Y-1.2795
X3.1496Y-1.378
X3.1496Y-1.4764
X3.1496Y-1.5748
X3.1496Y-1.9685
X3.1496Y-2.4606
X3.1496Y-2.5591
X3.1732Y-0.0945
X3.189Y-1.378
X3.2126Y-0.0945
X3.2283Y-1.378
X3.248Y1.0827
X3.248Y0.9843
X3.248Y0.5906
X3.248Y0.4921
X3.248Y0.3937
X3.248Y0.2953
X3.248Y0.1969
X3.248Y0.0984
X3.248Y0.0
X3.248Y-0.1969
X3.248Y-0.2953
X3.248Y-0.689
X3.248Y-0.7874
X3.248Y-0.8858
X3.248Y-0.9843
X3.248Y-1.0827
X3.248Y-1.1811
X3.248Y-1.2795
X3.248Y-1.4764
X3.248Y-1.5748
X3.248Y-1.9685
X3.248Y-2.0669
X3.248Y-2.1654
X3.248Y-2.2638
X3.248Y-2.3622
X3.248Y-2.4606
X3.248Y-2.5591
X3.252Y-0.0945
X3.2677Y-1.378
X3.2913Y-0.0945
X3.3071Y-1.378
X3.3307Y-0.0945
X3.3465Y1.0827
X3.3465Y0.9843
X3.3465Y0.5906
X3.3465Y0.1969
X3.3465Y0.0984
X3.3465Y0.0
X3.3465Y-0.1969
X3.3465Y-0.2953
X3.3465Y-0.689
X3.3465Y-1.0827
X3.3465Y-1.1811
X3.3465Y-1.2795
X3.3465Y-1.378
X3.3465Y-1.4764
X3.3465Y-1.5748
X3.3465Y-1.9685
X3.3465Y-2.3622
X3.3465Y-2.4606
X3.3465Y-2.5591
X3.3701Y-0.0945
X3.3858Y-1.378
X3.4094Y-0.0945
X3.4252Y-1.378
X3.4449Y1.0827
X3.4449Y0.9843
X3.4449Y0.5906
X3.4449Y0.4921
X3.4449Y0.3937
X3.4449Y0.2953
X3.4449Y0.1969
X3.4449Y0.0984
X3.4449Y0.0
X3.4449Y-0.1969
X3.4449Y-0.2953
X3.4449Y-0.689
X3.4449Y-0.7874
X3.4449Y-0.8858
X3.4449Y-0.9843
X3.4449Y-1.0827
X3.4449Y-1.1811
X3.4449Y-1.2795
X3.4449Y-1.4764
X3.4449Y-1.5748
X3.4449Y-1.9685
X3.4449Y-2.0669
X3.4449Y-2.1654
X3.4449Y-2.2638
X3.4449Y-2.3622
X3.4449Y-2.4606
X3.4449Y-2.5591
X3.4488Y-0.0945
X3.4646Y-1.378
X3.4882Y-0.0945
X3.5039Y-1.378
X3.5276Y-0.0945
X3.5433Y1.0827
X3.5433Y0.9843
X3.5433Y0.5906
X3.5433Y0.4921
X3.5433Y0.3937
X3.5433Y0.2953
X3.5433Y0.1969
X3.5433Y0.0984
X3.5433Y0.0
X3.5433Y-0.1969
X3.5433Y-0.2953
X3.5433Y-0.689
X3.5433Y-0.7874
X3.5433Y-0.8858
X3.5433Y-0.9843
X3.5433Y-1.0827
X3.5433Y-1.1811
X3.5433Y-1.2795
X3.5433Y-1.378
X3.5433Y-1.4764
X3.5433Y-1.5748
X3.5433Y-1.9685
X3.5433Y-2.0669
X3.5433Y-2.1654
X3.5433Y-2.2638
X3.5433Y-2.3622
X3.5433Y-2.4606
X3.5433Y-2.5591
X3.5669Y-0.0945
X3.5827Y-1.378
X3.6063Y-0.0945
X3.622Y-1.378
X3.6417Y1.0827
X3.6417Y0.9843
X3.6417Y0.5906
X3.6417Y0.0
X3.6417Y-0.1969
X3.6417Y-0.2953
X3.6417Y-0.689
X3.6417Y-1.2795
X3.6417Y-1.4764
X3.6417Y-1.5748
X3.6417Y-1.9685
X3.6417Y-2.5591
X3.6457Y-0.0945
X3.6614Y-1.378
X3.685Y-0.0945
X3.7008Y-1.378
X3.7244Y-0.0945
X3.7402Y1.0827
X3.7402Y0.9843
X3.7402Y0.5906
X3.7402Y0.0
X3.7402Y-0.1969
X3.7402Y-0.2953
X3.7402Y-0.689
X3.7402Y-1.2795
X3.7402Y-1.378
X3.7402Y-1.4764
X3.7402Y-1.5748
X3.7402Y-1.9685
X3.7402Y-2.5591
X3.7638Y-0.0945
X3.7795Y-1.378
X3.8031Y-0.0945
X3.8189Y-1.378
X3.8386Y1.0827
X3.8386Y0.9843
X3.8386Y0.5906
X3.8386Y0.4921
X3.8386Y0.3937
X3.8386Y0.2953
X3.8386Y0.1969
X3.8386Y0.0984
X3.8386Y0.0
X3.8386Y-0.1969
X3.8386Y-0.2953
X3.8386Y-0.689
X3.8386Y-0.7874
X3.8386Y-0.8858
X3.8386Y-0.9843
X3.8386Y-1.0827
X3.8386Y-1.1811
X3.8386Y-1.2795
X3.8386Y-1.4764
X3.8386Y-1.5748
X3.8386Y-1.9685
X3.8386Y-2.0669
X3.8386Y-2.1654
X3.8386Y-2.2638
X3.8386Y-2.3622
X3.8386Y-2.4606
X3.8386Y-2.5591
X3.8425Y-0.0945
X3.8583Y-1.378
X3.8819Y-0.0945
X3.8976Y-1.378
T0
M30
