G04 #@! TF.GenerationSoftware,KiCad,Pcbnew,(5.1.5)-3*
G04 #@! TF.CreationDate,2021-12-07T11:44:26+01:00*
G04 #@! TF.ProjectId,stitched capcoupler,73746974-6368-4656-9420-636170636f75,rev?*
G04 #@! TF.SameCoordinates,Original*
G04 #@! TF.FileFunction,Copper,L1,Top*
G04 #@! TF.FilePolarity,Positive*
%FSLAX46Y46*%
G04 Gerber Fmt 4.6, Leading zero omitted, Abs format (unit mm)*
G04 Created by KiCad (PCBNEW (5.1.5)-3) date 2021-12-07 11:44:26*
%MOMM*%
%LPD*%
G04 APERTURE LIST*
%ADD10C,0.100000*%
%ADD11C,0.500000*%
%ADD12R,2.000000X2.900000*%
%ADD13R,0.500000X1.000000*%
%ADD14R,2.900000X2.000000*%
%ADD15R,1.000000X0.500000*%
%ADD16R,6.350000X2.200000*%
%ADD17R,1.500000X4.000000*%
%ADD18R,1.400000X4.000000*%
%ADD19R,4.000000X1.400000*%
%ADD20R,4.000000X1.500000*%
%ADD21R,2.000000X3.500000*%
%ADD22C,0.800000*%
%ADD23C,2.900000*%
%ADD24C,1.500000*%
%ADD25C,0.254000*%
G04 APERTURE END LIST*
D10*
X92800000Y19000000D02*
X91700000Y18600000D01*
X92800000Y21000000D02*
X91900000Y21300000D01*
X91900000Y21400000D02*
X94900000Y20300000D01*
X94900000Y19700000D02*
X91900000Y18600000D01*
D11*
X94900000Y20000000D02*
X92000000Y19500000D01*
X95000000Y20000000D02*
X92000000Y20500000D01*
X95000000Y20000000D02*
X91800000Y21100000D01*
X95000000Y20000000D02*
X91800000Y18900000D01*
X95000000Y20000000D02*
X91900000Y20000000D01*
D10*
X92000000Y18600000D02*
X94900000Y19600000D01*
X94900000Y20400000D02*
X92000000Y21400000D01*
X74000000Y2200000D02*
X73600000Y3300000D01*
X76000000Y2200000D02*
X76300000Y3100000D01*
X76400000Y3100000D02*
X75300000Y100000D01*
X74700000Y100000D02*
X73600000Y3100000D01*
D11*
X75000000Y100000D02*
X74500000Y3000000D01*
X75000000Y0D02*
X75500000Y3000000D01*
X75000000Y0D02*
X76100000Y3200000D01*
X75000000Y0D02*
X73900000Y3200000D01*
X75000000Y0D02*
X75000000Y3100000D01*
D10*
X73600000Y3000000D02*
X74600000Y100000D01*
X75400000Y100000D02*
X76400000Y3000000D01*
X58200000Y21000000D02*
X59300000Y21400000D01*
X58200000Y19000000D02*
X59100000Y18700000D01*
X59100000Y18600000D02*
X56100000Y19700000D01*
X56100000Y20300000D02*
X59100000Y21400000D01*
D11*
X56100000Y20000000D02*
X59000000Y20500000D01*
X56000000Y20000000D02*
X59000000Y19500000D01*
X56000000Y20000000D02*
X59200000Y18900000D01*
X56000000Y20000000D02*
X59200000Y21100000D01*
X56000000Y20000000D02*
X59100000Y20000000D01*
D10*
X59000000Y21400000D02*
X56100000Y20400000D01*
X56100000Y19600000D02*
X59000000Y18600000D01*
X92800000Y-13500000D02*
X91700000Y-13900000D01*
X92800000Y-11500000D02*
X91900000Y-11200000D01*
X91900000Y-11100000D02*
X94900000Y-12200000D01*
X94900000Y-12800000D02*
X91900000Y-13900000D01*
D11*
X94900000Y-12500000D02*
X92000000Y-13000000D01*
X95000000Y-12500000D02*
X92000000Y-12000000D01*
X95000000Y-12500000D02*
X91800000Y-11400000D01*
X95000000Y-12500000D02*
X91800000Y-13600000D01*
X95000000Y-12500000D02*
X91900000Y-12500000D01*
D10*
X92000000Y-13900000D02*
X94900000Y-12900000D01*
X94900000Y-12100000D02*
X92000000Y-11100000D01*
X74000000Y-30300000D02*
X73600000Y-29200000D01*
X76000000Y-30300000D02*
X76300000Y-29400000D01*
X76400000Y-29400000D02*
X75300000Y-32400000D01*
X74700000Y-32400000D02*
X73600000Y-29400000D01*
D11*
X75000000Y-32400000D02*
X74500000Y-29500000D01*
X75000000Y-32500000D02*
X75500000Y-29500000D01*
X75000000Y-32500000D02*
X76100000Y-29300000D01*
X75000000Y-32500000D02*
X73900000Y-29300000D01*
X75000000Y-32500000D02*
X75000000Y-29400000D01*
D10*
X73600000Y-29500000D02*
X74600000Y-32400000D01*
X75400000Y-32400000D02*
X76400000Y-29500000D01*
X58200000Y-11500000D02*
X59300000Y-11100000D01*
X58200000Y-13500000D02*
X59100000Y-13800000D01*
X59100000Y-13900000D02*
X56100000Y-12800000D01*
X56100000Y-12200000D02*
X59100000Y-11100000D01*
D11*
X56100000Y-12500000D02*
X59000000Y-12000000D01*
X56000000Y-12500000D02*
X59000000Y-13000000D01*
X56000000Y-12500000D02*
X59200000Y-13600000D01*
X56000000Y-12500000D02*
X59200000Y-11400000D01*
X56000000Y-12500000D02*
X59100000Y-12500000D01*
D10*
X59000000Y-11100000D02*
X56100000Y-12100000D01*
X56100000Y-12900000D02*
X59000000Y-13900000D01*
X75400000Y-64900000D02*
X76400000Y-62000000D01*
X73600000Y-62000000D02*
X74600000Y-64900000D01*
D11*
X75000000Y-65000000D02*
X75000000Y-61900000D01*
X75000000Y-65000000D02*
X73900000Y-61800000D01*
X75000000Y-65000000D02*
X76100000Y-61800000D01*
X75000000Y-65000000D02*
X75500000Y-62000000D01*
X75000000Y-64900000D02*
X74500000Y-62000000D01*
D10*
X74700000Y-64900000D02*
X73600000Y-61900000D01*
X76400000Y-61900000D02*
X75300000Y-64900000D01*
X76000000Y-62800000D02*
X76300000Y-61900000D01*
X74000000Y-62800000D02*
X73600000Y-61700000D01*
X94900000Y-44600000D02*
X92000000Y-43600000D01*
X92000000Y-46400000D02*
X94900000Y-45400000D01*
D11*
X95000000Y-45000000D02*
X91900000Y-45000000D01*
X95000000Y-45000000D02*
X91800000Y-46100000D01*
X95000000Y-45000000D02*
X91800000Y-43900000D01*
X95000000Y-45000000D02*
X92000000Y-44500000D01*
X94900000Y-45000000D02*
X92000000Y-45500000D01*
D10*
X94900000Y-45300000D02*
X91900000Y-46400000D01*
X91900000Y-43600000D02*
X94900000Y-44700000D01*
X92800000Y-44000000D02*
X91900000Y-43700000D01*
X92800000Y-46000000D02*
X91700000Y-46400000D01*
X56100000Y-45400000D02*
X59000000Y-46400000D01*
X59000000Y-43600000D02*
X56100000Y-44600000D01*
D11*
X56000000Y-45000000D02*
X59100000Y-45000000D01*
X56000000Y-45000000D02*
X59200000Y-43900000D01*
X56000000Y-45000000D02*
X59200000Y-46100000D01*
X56000000Y-45000000D02*
X59000000Y-45500000D01*
X56100000Y-45000000D02*
X59000000Y-44500000D01*
D10*
X56100000Y-44700000D02*
X59100000Y-43600000D01*
X59100000Y-46400000D02*
X56100000Y-45300000D01*
X58200000Y-46000000D02*
X59100000Y-46300000D01*
X58200000Y-44000000D02*
X59300000Y-43600000D01*
D12*
X91000000Y20000000D03*
D13*
X95000000Y20000000D03*
D14*
X75000000Y4000000D03*
D15*
X75000000Y0D03*
D16*
X75000000Y16000000D03*
X75000000Y20000000D03*
D17*
X72460000Y-1000000D03*
X77540000Y-1000000D03*
D18*
X75000000Y-1000000D03*
D19*
X97500000Y20000000D03*
D20*
X97500000Y22540000D03*
X97500000Y17460000D03*
D21*
X80000000Y10000000D03*
X76000000Y10000000D03*
D20*
X52500000Y22540000D03*
X52500000Y17460000D03*
D19*
X52500000Y20000000D03*
D12*
X60000000Y20000000D03*
D13*
X56000000Y20000000D03*
D12*
X91000000Y-12500000D03*
D13*
X95000000Y-12500000D03*
D14*
X75000000Y-28500000D03*
D15*
X75000000Y-32500000D03*
D16*
X75000000Y-16500000D03*
X75000000Y-12500000D03*
D17*
X72460000Y-33500000D03*
X77540000Y-33500000D03*
D18*
X75000000Y-33500000D03*
D19*
X97500000Y-12500000D03*
D20*
X97500000Y-9960000D03*
X97500000Y-15040000D03*
D21*
X80000000Y-22500000D03*
X76000000Y-22500000D03*
D20*
X52500000Y-9960000D03*
X52500000Y-15040000D03*
D19*
X52500000Y-12500000D03*
D12*
X60000000Y-12500000D03*
D13*
X56000000Y-12500000D03*
D15*
X75000000Y-65000000D03*
D14*
X75000000Y-61000000D03*
D13*
X95000000Y-45000000D03*
D12*
X91000000Y-45000000D03*
D13*
X56000000Y-45000000D03*
D12*
X60000000Y-45000000D03*
D16*
X75000000Y-45000000D03*
X75000000Y-49000000D03*
D21*
X76000000Y-55000000D03*
X80000000Y-55000000D03*
D19*
X52500000Y-45000000D03*
D20*
X52500000Y-47540000D03*
X52500000Y-42460000D03*
X97500000Y-47540000D03*
X97500000Y-42460000D03*
D19*
X97500000Y-45000000D03*
D18*
X75000000Y-66000000D03*
D17*
X77540000Y-66000000D03*
X72460000Y-66000000D03*
D22*
X87500000Y-20000000D03*
X62500000Y-27500000D03*
X65000000Y-30000000D03*
X87500000Y-25000000D03*
X90000000Y-27500000D03*
X90000000Y-32500000D03*
X90000000Y-25000000D03*
X90000000Y-30000000D03*
X87500000Y-30000000D03*
X85000000Y-30000000D03*
X82500000Y-30000000D03*
X67500000Y-30000000D03*
X62500000Y-25000000D03*
X87500000Y-27500000D03*
X62500000Y-30000000D03*
X70000000Y-30000000D03*
X62500000Y-32500000D03*
X87500000Y-22500000D03*
X80000000Y-30000000D03*
X62500000Y-22500000D03*
X62500000Y-20000000D03*
X57500000Y-32500000D03*
X67500000Y-32500000D03*
X80000000Y-32500000D03*
X65000000Y-32500000D03*
X92500000Y-32500000D03*
X67500000Y-27500000D03*
X87500000Y-32500000D03*
X82500000Y-22500000D03*
X82500000Y-27500000D03*
X82500000Y-20000000D03*
X70000000Y-27500000D03*
X70000000Y-32500000D03*
X55000000Y-32500000D03*
X82500000Y-32500000D03*
X82500000Y-25000000D03*
X85000000Y-27500000D03*
X85000000Y-32500000D03*
X65000000Y-27500000D03*
X95000000Y-32500000D03*
X85000000Y-5000000D03*
X60000000Y-5000000D03*
X60000000Y-20000000D03*
X60000000Y-32500000D03*
X90000000Y-5000000D03*
X72500000Y-5000000D03*
X62500000Y-5000000D03*
X57500000Y-5000000D03*
X55000000Y-5000000D03*
X52500000Y-5000000D03*
X60000000Y-22500000D03*
X97500000Y-22500000D03*
X60000000Y-25000000D03*
X60000000Y-30000000D03*
X97500000Y-30000000D03*
X97500000Y-25000000D03*
X95000000Y-5000000D03*
X87500000Y-5000000D03*
X65000000Y-5000000D03*
X90000000Y-20000000D03*
X90000000Y-22500000D03*
X60000000Y-27500000D03*
X70000000Y-5000000D03*
X97500000Y-20000000D03*
X97500000Y-5000000D03*
X97500000Y-27500000D03*
X92500000Y-5000000D03*
X77500000Y-5000000D03*
X82500000Y-5000000D03*
X80000000Y-5000000D03*
X75000000Y-5000000D03*
X67500000Y-5000000D03*
X97500000Y-17500000D03*
X75000000Y-7500000D03*
X67500000Y-17500000D03*
X55000000Y-7500000D03*
X85000000Y-17500000D03*
X57500000Y-17500000D03*
X62500000Y-7500000D03*
X55000000Y-17500000D03*
X57500000Y-7500000D03*
X52500000Y-17500000D03*
X80000000Y-7500000D03*
X52500000Y-20000000D03*
X60000000Y-7500000D03*
X80000000Y-17500000D03*
X52500000Y-22500000D03*
X85000000Y-7500000D03*
X92500000Y-17500000D03*
X87500000Y-17500000D03*
X52500000Y-7500000D03*
X90000000Y-17500000D03*
X67500000Y-7500000D03*
X60000000Y-17500000D03*
X52500000Y-25000000D03*
X62500000Y-17500000D03*
X52500000Y-30000000D03*
X70000000Y-7500000D03*
X90000000Y-7500000D03*
X70000000Y-17500000D03*
X72500000Y-7500000D03*
X95000000Y-17500000D03*
X52500000Y-27500000D03*
X97500000Y-32500000D03*
X82500000Y-17500000D03*
X52500000Y-32500000D03*
X95000000Y-7500000D03*
X97500000Y-7500000D03*
X92500000Y-7500000D03*
X65000000Y-7500000D03*
X82500000Y-7500000D03*
X77500000Y-7500000D03*
X87500000Y-7500000D03*
X51000000Y-7500000D03*
X65000000Y-17500000D03*
X87500000Y12500000D03*
X62500000Y5000000D03*
X65000000Y2500000D03*
X87500000Y7500000D03*
X90000000Y5000000D03*
X90000000Y0D03*
X90000000Y7500000D03*
X90000000Y2500000D03*
X87500000Y2500000D03*
X85000000Y2500000D03*
X82500000Y2500000D03*
X67500000Y2500000D03*
X62500000Y7500000D03*
X87500000Y5000000D03*
X62500000Y2500000D03*
X70000000Y2500000D03*
X62500000Y0D03*
X87500000Y10000000D03*
X80000000Y2500000D03*
X62500000Y10000000D03*
X62500000Y12500000D03*
X57500000Y0D03*
X67500000Y0D03*
X80000000Y0D03*
X65000000Y0D03*
X92500000Y0D03*
X67500000Y5000000D03*
X87500000Y0D03*
X82500000Y10000000D03*
X82500000Y5000000D03*
X82500000Y12500000D03*
X70000000Y5000000D03*
X70000000Y0D03*
X55000000Y0D03*
X82500000Y0D03*
X82500000Y7500000D03*
X85000000Y5000000D03*
X85000000Y0D03*
X65000000Y5000000D03*
X95000000Y0D03*
X85000000Y27500000D03*
X60000000Y27500000D03*
X60000000Y12500000D03*
X60000000Y0D03*
X90000000Y27500000D03*
X72500000Y27500000D03*
X62500000Y27500000D03*
X57500000Y27500000D03*
X55000000Y27500000D03*
X52500000Y27500000D03*
X60000000Y10000000D03*
X97500000Y10000000D03*
X60000000Y7500000D03*
X60000000Y2500000D03*
X97500000Y2500000D03*
X97500000Y7500000D03*
X95000000Y27500000D03*
X87500000Y27500000D03*
X65000000Y27500000D03*
X90000000Y12500000D03*
X90000000Y10000000D03*
X60000000Y5000000D03*
X70000000Y27500000D03*
X97500000Y12500000D03*
X97500000Y27500000D03*
X97500000Y5000000D03*
X92500000Y27500000D03*
X77500000Y27500000D03*
X82500000Y27500000D03*
X80000000Y27500000D03*
X75000000Y27500000D03*
X67500000Y27500000D03*
X97500000Y15000000D03*
X75000000Y25000000D03*
X67500000Y15000000D03*
X55000000Y25000000D03*
X85000000Y15000000D03*
X57500000Y15000000D03*
X62500000Y25000000D03*
X55000000Y15000000D03*
X57500000Y25000000D03*
X52500000Y15000000D03*
X80000000Y25000000D03*
X52500000Y12500000D03*
X60000000Y25000000D03*
X80000000Y15000000D03*
X52500000Y10000000D03*
X85000000Y25000000D03*
X92500000Y15000000D03*
X87500000Y15000000D03*
X52500000Y25000000D03*
X90000000Y15000000D03*
X67500000Y25000000D03*
X60000000Y15000000D03*
X52500000Y7500000D03*
X62500000Y15000000D03*
X52500000Y2500000D03*
X70000000Y25000000D03*
X90000000Y25000000D03*
X70000000Y15000000D03*
X72500000Y25000000D03*
X95000000Y15000000D03*
X52500000Y5000000D03*
X97500000Y0D03*
X82500000Y15000000D03*
X52500000Y0D03*
X95000000Y25000000D03*
X97500000Y25000000D03*
X92500000Y25000000D03*
X65000000Y25000000D03*
X82500000Y25000000D03*
X77500000Y25000000D03*
X87500000Y25000000D03*
X51000000Y25000000D03*
X65000000Y15000000D03*
X52000000Y-35000000D03*
X53000000Y-35000000D03*
X54000000Y-35000000D03*
X55000000Y-35000000D03*
X56000000Y-35000000D03*
X57000000Y-35000000D03*
X58000000Y-35000000D03*
X59000000Y-35000000D03*
X60000000Y-35000000D03*
X61000000Y-35000000D03*
X62000000Y-35000000D03*
X63000000Y-35000000D03*
X64000000Y-35000000D03*
X65000000Y-35000000D03*
X66000000Y-35000000D03*
X67000000Y-35000000D03*
X68000000Y-35000000D03*
X69000000Y-35000000D03*
X70000000Y-35000000D03*
X71000000Y-35000000D03*
X72000000Y-35000000D03*
X79600000Y-2400000D03*
X80600000Y-2400000D03*
X81600000Y-2400000D03*
X82600000Y-2400000D03*
X83600000Y-2400000D03*
X84600000Y-2400000D03*
X85600000Y-2400000D03*
X86600000Y-2400000D03*
X87600000Y-2400000D03*
X88600000Y-2400000D03*
X89600000Y-2400000D03*
X90600000Y-2400000D03*
X91600000Y-2400000D03*
X92600000Y-2400000D03*
X93600000Y-2400000D03*
X94600000Y-2400000D03*
X95600000Y-2400000D03*
X96600000Y-2400000D03*
X97600000Y-2400000D03*
X98600000Y-2400000D03*
X78600000Y-2400000D03*
X72000000Y-2400000D03*
X71000000Y-2400000D03*
X70000000Y-2400000D03*
X69000000Y-2400000D03*
X68000000Y-2400000D03*
X67000000Y-2400000D03*
X66000000Y-2400000D03*
X65000000Y-2400000D03*
X64000000Y-2400000D03*
X63000000Y-2400000D03*
X62000000Y-2400000D03*
X61000000Y-2400000D03*
X60000000Y-2400000D03*
X59000000Y-2400000D03*
X58000000Y-2400000D03*
X57000000Y-2400000D03*
X56000000Y-2400000D03*
X55000000Y-2400000D03*
X54000000Y-2400000D03*
X53000000Y-2400000D03*
X52000000Y-2400000D03*
X51000000Y-2400000D03*
X51000000Y-35000000D03*
X99000000Y-35000000D03*
X98000000Y-35000000D03*
X97000000Y-35000000D03*
X96000000Y-35000000D03*
X95000000Y-35000000D03*
X94000000Y-35000000D03*
X93000000Y-35000000D03*
X92000000Y-35000000D03*
X91000000Y-35000000D03*
X90000000Y-35000000D03*
X89000000Y-35000000D03*
X88000000Y-35000000D03*
X87000000Y-35000000D03*
X86000000Y-35000000D03*
X85000000Y-35000000D03*
X84000000Y-35000000D03*
X83000000Y-35000000D03*
X82000000Y-35000000D03*
X81000000Y-35000000D03*
X80000000Y-35000000D03*
X79000000Y-35000000D03*
X51000000Y-40000000D03*
X55000000Y-40000000D03*
X60000000Y-40000000D03*
X65000000Y-40000000D03*
X70000000Y-40000000D03*
X75000000Y-40000000D03*
X80000000Y-40000000D03*
X85000000Y-40000000D03*
X90000000Y-40000000D03*
X95000000Y-40000000D03*
X95000000Y-50000000D03*
X90000000Y-50000000D03*
X85000000Y-50000000D03*
X80000000Y-50000000D03*
X70000000Y-50000000D03*
X65000000Y-50000000D03*
X60000000Y-50000000D03*
X55000000Y-50000000D03*
X52500000Y-40000000D03*
X57500000Y-40000000D03*
X62500000Y-40000000D03*
X67500000Y-40000000D03*
X72500000Y-40000000D03*
X77500000Y-40000000D03*
X82500000Y-40000000D03*
X87500000Y-40000000D03*
X92500000Y-40000000D03*
X97500000Y-40000000D03*
X97500000Y-50000000D03*
X92500000Y-50000000D03*
X87500000Y-50000000D03*
X82500000Y-50000000D03*
X67500000Y-50000000D03*
X62500000Y-50000000D03*
X57500000Y-50000000D03*
X52500000Y-50000000D03*
X52500000Y-52500000D03*
X52500000Y-55000000D03*
X52500000Y-57500000D03*
X52500000Y-62500000D03*
X52500000Y-60000000D03*
X52500000Y-65000000D03*
X97500000Y-65000000D03*
X97500000Y-62500000D03*
X97500000Y-60000000D03*
X97500000Y-57500000D03*
X97500000Y-55000000D03*
X97500000Y-52500000D03*
X97500000Y-37500000D03*
X95000000Y-37500000D03*
X92500000Y-37500000D03*
X90000000Y-37500000D03*
X87500000Y-37500000D03*
X85000000Y-37500000D03*
X82500000Y-37500000D03*
X80000000Y-37500000D03*
X77500000Y-37500000D03*
X75000000Y-37500000D03*
X72500000Y-37500000D03*
X70000000Y-37500000D03*
X67500000Y-37500000D03*
X65000000Y-37500000D03*
X62500000Y-37500000D03*
X60000000Y-37500000D03*
X57500000Y-37500000D03*
X55000000Y-37500000D03*
X52500000Y-37500000D03*
X60000000Y-52500000D03*
X60000000Y-55000000D03*
X60000000Y-57500000D03*
X60000000Y-60000000D03*
X60000000Y-62500000D03*
X60000000Y-65000000D03*
X90000000Y-52500000D03*
X90000000Y-55000000D03*
X90000000Y-57500000D03*
X90000000Y-60000000D03*
X90000000Y-62500000D03*
X90000000Y-65000000D03*
X87500000Y-62500000D03*
X85000000Y-62500000D03*
X82500000Y-62500000D03*
X80000000Y-62500000D03*
X70000000Y-62500000D03*
X67500000Y-62500000D03*
X65000000Y-62500000D03*
X62500000Y-62500000D03*
X62500000Y-52500000D03*
X62500000Y-55000000D03*
X62500000Y-57500000D03*
X62500000Y-60000000D03*
X62500000Y-65000000D03*
X87500000Y-60000000D03*
X87500000Y-57500000D03*
X87500000Y-55000000D03*
X87500000Y-52500000D03*
X85000000Y-60000000D03*
X82500000Y-60000000D03*
X70000000Y-60000000D03*
X67500000Y-60000000D03*
X65000000Y-60000000D03*
X55000000Y-65000000D03*
X57500000Y-65000000D03*
X65000000Y-65000000D03*
X67500000Y-65000000D03*
X70000000Y-65000000D03*
X80000000Y-65000000D03*
X82500000Y-65000000D03*
X85000000Y-65000000D03*
X87500000Y-65000000D03*
X92500000Y-65000000D03*
X95000000Y-65000000D03*
X82500000Y-52500000D03*
X82500000Y-55000000D03*
X82500000Y-57500000D03*
D23*
X90000000Y-12500000D02*
X60000000Y-12500000D01*
D24*
X95000000Y-12500000D02*
X90000000Y-12500000D01*
D23*
X75000000Y-12500000D02*
X90000000Y-12500000D01*
D24*
X55000000Y-12500000D02*
X60000000Y-12500000D01*
D23*
X75000000Y-17000000D02*
X75000000Y-28000000D01*
X90000000Y20000000D02*
X60000000Y20000000D01*
D24*
X95000000Y20000000D02*
X90000000Y20000000D01*
D23*
X75000000Y20000000D02*
X90000000Y20000000D01*
D24*
X55000000Y20000000D02*
X60000000Y20000000D01*
D23*
X75000000Y15500000D02*
X75000000Y4500000D01*
X75000000Y-45000000D02*
X90000000Y-45000000D01*
X90000000Y-45000000D02*
X60000000Y-45000000D01*
D24*
X55000000Y-45000000D02*
X60000000Y-45000000D01*
X95000000Y-45000000D02*
X90000000Y-45000000D01*
D23*
X75000000Y-49500000D02*
X75000000Y-60500000D01*
D25*
G36*
X52373000Y-47500000D02*
G01*
X52374744Y-47520973D01*
X52381242Y-47545006D01*
X52392304Y-47567310D01*
X52407505Y-47587027D01*
X52426260Y-47603400D01*
X52447850Y-47615799D01*
X52471443Y-47623748D01*
X58971443Y-49123748D01*
X59000000Y-49127000D01*
X69940517Y-49127000D01*
X72373000Y-52045980D01*
X72373000Y-66840000D01*
X50660000Y-66840000D01*
X50660000Y-46338072D01*
X52373000Y-46338072D01*
X52373000Y-47500000D01*
G37*
X52373000Y-47500000D02*
X52374744Y-47520973D01*
X52381242Y-47545006D01*
X52392304Y-47567310D01*
X52407505Y-47587027D01*
X52426260Y-47603400D01*
X52447850Y-47615799D01*
X52471443Y-47623748D01*
X58971443Y-49123748D01*
X59000000Y-49127000D01*
X69940517Y-49127000D01*
X72373000Y-52045980D01*
X72373000Y-66840000D01*
X50660000Y-66840000D01*
X50660000Y-46338072D01*
X52373000Y-46338072D01*
X52373000Y-47500000D01*
G36*
X99340000Y-66840000D02*
G01*
X77627000Y-66840000D01*
X77627000Y-56862420D01*
X77638072Y-56750000D01*
X77638072Y-53250000D01*
X77627000Y-53137580D01*
X77627000Y-52045980D01*
X80059483Y-49127000D01*
X90000000Y-49127000D01*
X90024907Y-49124534D01*
X97524907Y-47624534D01*
X97548601Y-47617333D01*
X97570557Y-47605597D01*
X97589803Y-47589803D01*
X97605597Y-47570557D01*
X97617333Y-47548601D01*
X97624560Y-47524776D01*
X97627000Y-47500000D01*
X97627000Y-46338072D01*
X99340001Y-46338072D01*
X99340000Y-66840000D01*
G37*
X99340000Y-66840000D02*
X77627000Y-66840000D01*
X77627000Y-56862420D01*
X77638072Y-56750000D01*
X77638072Y-53250000D01*
X77627000Y-53137580D01*
X77627000Y-52045980D01*
X80059483Y-49127000D01*
X90000000Y-49127000D01*
X90024907Y-49124534D01*
X97524907Y-47624534D01*
X97548601Y-47617333D01*
X97570557Y-47605597D01*
X97589803Y-47589803D01*
X97605597Y-47570557D01*
X97617333Y-47548601D01*
X97624560Y-47524776D01*
X97627000Y-47500000D01*
X97627000Y-46338072D01*
X99340001Y-46338072D01*
X99340000Y-66840000D01*
G36*
X99340001Y-43661928D02*
G01*
X97627000Y-43661928D01*
X97627000Y-42500000D01*
X97624586Y-42475354D01*
X97617383Y-42451522D01*
X97605670Y-42429553D01*
X97589896Y-42410291D01*
X97570668Y-42394477D01*
X97548724Y-42382718D01*
X97524907Y-42375466D01*
X90024907Y-40875466D01*
X90000000Y-40873000D01*
X59000000Y-40873000D01*
X58971443Y-40876252D01*
X52471443Y-42376252D01*
X52451399Y-42382667D01*
X52429443Y-42394403D01*
X52410197Y-42410197D01*
X52394403Y-42429443D01*
X52382667Y-42451399D01*
X52375440Y-42475224D01*
X52373000Y-42500000D01*
X52373000Y-43661928D01*
X50660000Y-43661928D01*
X50660000Y-35660000D01*
X99340001Y-35660000D01*
X99340001Y-43661928D01*
G37*
X99340001Y-43661928D02*
X97627000Y-43661928D01*
X97627000Y-42500000D01*
X97624586Y-42475354D01*
X97617383Y-42451522D01*
X97605670Y-42429553D01*
X97589896Y-42410291D01*
X97570668Y-42394477D01*
X97548724Y-42382718D01*
X97524907Y-42375466D01*
X90024907Y-40875466D01*
X90000000Y-40873000D01*
X59000000Y-40873000D01*
X58971443Y-40876252D01*
X52471443Y-42376252D01*
X52451399Y-42382667D01*
X52429443Y-42394403D01*
X52410197Y-42410197D01*
X52394403Y-42429443D01*
X52382667Y-42451399D01*
X52375440Y-42475224D01*
X52373000Y-42500000D01*
X52373000Y-43661928D01*
X50660000Y-43661928D01*
X50660000Y-35660000D01*
X99340001Y-35660000D01*
X99340001Y-43661928D01*
G36*
X52373000Y-15000000D02*
G01*
X52374744Y-15020973D01*
X52381242Y-15045006D01*
X52392304Y-15067310D01*
X52407505Y-15087027D01*
X52426260Y-15103400D01*
X52447850Y-15115799D01*
X52471443Y-15123748D01*
X58971443Y-16623748D01*
X59000000Y-16627000D01*
X69940517Y-16627000D01*
X72373000Y-19545980D01*
X72373000Y-34340000D01*
X50660000Y-34340000D01*
X50660000Y-13838072D01*
X52373000Y-13838072D01*
X52373000Y-15000000D01*
G37*
X52373000Y-15000000D02*
X52374744Y-15020973D01*
X52381242Y-15045006D01*
X52392304Y-15067310D01*
X52407505Y-15087027D01*
X52426260Y-15103400D01*
X52447850Y-15115799D01*
X52471443Y-15123748D01*
X58971443Y-16623748D01*
X59000000Y-16627000D01*
X69940517Y-16627000D01*
X72373000Y-19545980D01*
X72373000Y-34340000D01*
X50660000Y-34340000D01*
X50660000Y-13838072D01*
X52373000Y-13838072D01*
X52373000Y-15000000D01*
G36*
X99340000Y-34340000D02*
G01*
X77627000Y-34340000D01*
X77627000Y-24362420D01*
X77638072Y-24250000D01*
X77638072Y-20750000D01*
X77627000Y-20637580D01*
X77627000Y-19545980D01*
X80059483Y-16627000D01*
X90000000Y-16627000D01*
X90024907Y-16624534D01*
X97524907Y-15124534D01*
X97548601Y-15117333D01*
X97570557Y-15105597D01*
X97589803Y-15089803D01*
X97605597Y-15070557D01*
X97617333Y-15048601D01*
X97624560Y-15024776D01*
X97627000Y-15000000D01*
X97627000Y-13838072D01*
X99340001Y-13838072D01*
X99340000Y-34340000D01*
G37*
X99340000Y-34340000D02*
X77627000Y-34340000D01*
X77627000Y-24362420D01*
X77638072Y-24250000D01*
X77638072Y-20750000D01*
X77627000Y-20637580D01*
X77627000Y-19545980D01*
X80059483Y-16627000D01*
X90000000Y-16627000D01*
X90024907Y-16624534D01*
X97524907Y-15124534D01*
X97548601Y-15117333D01*
X97570557Y-15105597D01*
X97589803Y-15089803D01*
X97605597Y-15070557D01*
X97617333Y-15048601D01*
X97624560Y-15024776D01*
X97627000Y-15000000D01*
X97627000Y-13838072D01*
X99340001Y-13838072D01*
X99340000Y-34340000D01*
G36*
X99340001Y-11161928D02*
G01*
X97627000Y-11161928D01*
X97627000Y-10000000D01*
X97624586Y-9975354D01*
X97617383Y-9951522D01*
X97605670Y-9929553D01*
X97589896Y-9910291D01*
X97570668Y-9894477D01*
X97548724Y-9882718D01*
X97524907Y-9875466D01*
X90024907Y-8375466D01*
X90000000Y-8373000D01*
X59000000Y-8373000D01*
X58971443Y-8376252D01*
X52471443Y-9876252D01*
X52451399Y-9882667D01*
X52429443Y-9894403D01*
X52410197Y-9910197D01*
X52394403Y-9929443D01*
X52382667Y-9951399D01*
X52375440Y-9975224D01*
X52373000Y-10000000D01*
X52373000Y-11161928D01*
X50660000Y-11161928D01*
X50660000Y-3160000D01*
X99340001Y-3160000D01*
X99340001Y-11161928D01*
G37*
X99340001Y-11161928D02*
X97627000Y-11161928D01*
X97627000Y-10000000D01*
X97624586Y-9975354D01*
X97617383Y-9951522D01*
X97605670Y-9929553D01*
X97589896Y-9910291D01*
X97570668Y-9894477D01*
X97548724Y-9882718D01*
X97524907Y-9875466D01*
X90024907Y-8375466D01*
X90000000Y-8373000D01*
X59000000Y-8373000D01*
X58971443Y-8376252D01*
X52471443Y-9876252D01*
X52451399Y-9882667D01*
X52429443Y-9894403D01*
X52410197Y-9910197D01*
X52394403Y-9929443D01*
X52382667Y-9951399D01*
X52375440Y-9975224D01*
X52373000Y-10000000D01*
X52373000Y-11161928D01*
X50660000Y-11161928D01*
X50660000Y-3160000D01*
X99340001Y-3160000D01*
X99340001Y-11161928D01*
G36*
X52373000Y17500000D02*
G01*
X52374744Y17479027D01*
X52381242Y17454994D01*
X52392304Y17432690D01*
X52407505Y17412973D01*
X52426260Y17396600D01*
X52447850Y17384201D01*
X52471443Y17376252D01*
X58971443Y15876252D01*
X59000000Y15873000D01*
X69940517Y15873000D01*
X72373000Y12954020D01*
X72373000Y-1840000D01*
X50660000Y-1840000D01*
X50660000Y18661928D01*
X52373000Y18661928D01*
X52373000Y17500000D01*
G37*
X52373000Y17500000D02*
X52374744Y17479027D01*
X52381242Y17454994D01*
X52392304Y17432690D01*
X52407505Y17412973D01*
X52426260Y17396600D01*
X52447850Y17384201D01*
X52471443Y17376252D01*
X58971443Y15876252D01*
X59000000Y15873000D01*
X69940517Y15873000D01*
X72373000Y12954020D01*
X72373000Y-1840000D01*
X50660000Y-1840000D01*
X50660000Y18661928D01*
X52373000Y18661928D01*
X52373000Y17500000D01*
G36*
X99340000Y-1840000D02*
G01*
X77627000Y-1840000D01*
X77627000Y8137580D01*
X77638072Y8250000D01*
X77638072Y11750000D01*
X77627000Y11862420D01*
X77627000Y12954020D01*
X80059483Y15873000D01*
X90000000Y15873000D01*
X90024907Y15875466D01*
X97524907Y17375466D01*
X97548601Y17382667D01*
X97570557Y17394403D01*
X97589803Y17410197D01*
X97605597Y17429443D01*
X97617333Y17451399D01*
X97624560Y17475224D01*
X97627000Y17500000D01*
X97627000Y18661928D01*
X99340001Y18661928D01*
X99340000Y-1840000D01*
G37*
X99340000Y-1840000D02*
X77627000Y-1840000D01*
X77627000Y8137580D01*
X77638072Y8250000D01*
X77638072Y11750000D01*
X77627000Y11862420D01*
X77627000Y12954020D01*
X80059483Y15873000D01*
X90000000Y15873000D01*
X90024907Y15875466D01*
X97524907Y17375466D01*
X97548601Y17382667D01*
X97570557Y17394403D01*
X97589803Y17410197D01*
X97605597Y17429443D01*
X97617333Y17451399D01*
X97624560Y17475224D01*
X97627000Y17500000D01*
X97627000Y18661928D01*
X99340001Y18661928D01*
X99340000Y-1840000D01*
G36*
X99340001Y21338072D02*
G01*
X97627000Y21338072D01*
X97627000Y22500000D01*
X97624586Y22524646D01*
X97617383Y22548478D01*
X97605670Y22570447D01*
X97589896Y22589709D01*
X97570668Y22605523D01*
X97548724Y22617282D01*
X97524907Y22624534D01*
X90024907Y24124534D01*
X90000000Y24127000D01*
X59000000Y24127000D01*
X58971443Y24123748D01*
X52471443Y22623748D01*
X52451399Y22617333D01*
X52429443Y22605597D01*
X52410197Y22589803D01*
X52394403Y22570557D01*
X52382667Y22548601D01*
X52375440Y22524776D01*
X52373000Y22500000D01*
X52373000Y21338072D01*
X50660000Y21338072D01*
X50660000Y29340000D01*
X99340001Y29340000D01*
X99340001Y21338072D01*
G37*
X99340001Y21338072D02*
X97627000Y21338072D01*
X97627000Y22500000D01*
X97624586Y22524646D01*
X97617383Y22548478D01*
X97605670Y22570447D01*
X97589896Y22589709D01*
X97570668Y22605523D01*
X97548724Y22617282D01*
X97524907Y22624534D01*
X90024907Y24124534D01*
X90000000Y24127000D01*
X59000000Y24127000D01*
X58971443Y24123748D01*
X52471443Y22623748D01*
X52451399Y22617333D01*
X52429443Y22605597D01*
X52410197Y22589803D01*
X52394403Y22570557D01*
X52382667Y22548601D01*
X52375440Y22524776D01*
X52373000Y22500000D01*
X52373000Y21338072D01*
X50660000Y21338072D01*
X50660000Y29340000D01*
X99340001Y29340000D01*
X99340001Y21338072D01*
M02*
