G04 #@! TF.GenerationSoftware,KiCad,Pcbnew,(5.1.5)-3*
G04 #@! TF.CreationDate,2021-12-07T11:44:26+01:00*
G04 #@! TF.ProjectId,stitched capcoupler,73746974-6368-4656-9420-636170636f75,rev?*
G04 #@! TF.SameCoordinates,Original*
G04 #@! TF.FileFunction,Soldermask,Bot*
G04 #@! TF.FilePolarity,Negative*
%FSLAX46Y46*%
G04 Gerber Fmt 4.6, Leading zero omitted, Abs format (unit mm)*
G04 Created by KiCad (PCBNEW (5.1.5)-3) date 2021-12-07 11:44:26*
%MOMM*%
%LPD*%
G04 APERTURE LIST*
%ADD10C,0.100000*%
G04 APERTURE END LIST*
D10*
G36*
X100000000Y-67500000D02*
G01*
X78465999Y-67500000D01*
X78441613Y-67502402D01*
X78418164Y-67509515D01*
X78396553Y-67521066D01*
X78377611Y-67536611D01*
X78362066Y-67555553D01*
X78350515Y-67577164D01*
X78343402Y-67600613D01*
X78341000Y-67624999D01*
X78341000Y-68051000D01*
X76739000Y-68051000D01*
X76739000Y-67624999D01*
X76736598Y-67600613D01*
X76729485Y-67577164D01*
X76717934Y-67555553D01*
X76702389Y-67536611D01*
X76683447Y-67521066D01*
X76661836Y-67509515D01*
X76638387Y-67502402D01*
X76614001Y-67500000D01*
X73385999Y-67500000D01*
X73361613Y-67502402D01*
X73338164Y-67509515D01*
X73316553Y-67521066D01*
X73297611Y-67536611D01*
X73282066Y-67555553D01*
X73270515Y-67577164D01*
X73263402Y-67600613D01*
X73261000Y-67624999D01*
X73261000Y-68051000D01*
X71659000Y-68051000D01*
X71659000Y-67624999D01*
X71656598Y-67600613D01*
X71649485Y-67577164D01*
X71637934Y-67555553D01*
X71622389Y-67536611D01*
X71603447Y-67521066D01*
X71581836Y-67509515D01*
X71558387Y-67502402D01*
X71534001Y-67500000D01*
X50000000Y-67500000D01*
X50000000Y-37624999D01*
X52500000Y-37624999D01*
X52500000Y-41534001D01*
X52502402Y-41558387D01*
X52509515Y-41581836D01*
X52521066Y-41603447D01*
X52536611Y-41622389D01*
X52555553Y-41637934D01*
X52577164Y-41649485D01*
X52600613Y-41656598D01*
X52624999Y-41659000D01*
X54551000Y-41659000D01*
X54551000Y-42375001D01*
X54553402Y-42399387D01*
X54560515Y-42422836D01*
X54572066Y-42444447D01*
X54587611Y-42463389D01*
X54606553Y-42478934D01*
X54628164Y-42490485D01*
X54651613Y-42497598D01*
X54675999Y-42500000D01*
X62500000Y-42500000D01*
X62500000Y-47500000D01*
X54675999Y-47500000D01*
X54651613Y-47502402D01*
X54628164Y-47509515D01*
X54606553Y-47521066D01*
X54587611Y-47536611D01*
X54572066Y-47555553D01*
X54560515Y-47577164D01*
X54553402Y-47600613D01*
X54551000Y-47624999D01*
X54551000Y-48341000D01*
X52624999Y-48341000D01*
X52600613Y-48343402D01*
X52577164Y-48350515D01*
X52555553Y-48362066D01*
X52536611Y-48377611D01*
X52521066Y-48396553D01*
X52509515Y-48418164D01*
X52502402Y-48441613D01*
X52500000Y-48465999D01*
X52500000Y-64875001D01*
X52502402Y-64899387D01*
X52509515Y-64922836D01*
X52521066Y-64944447D01*
X52536611Y-64963389D01*
X52555553Y-64978934D01*
X52577164Y-64990485D01*
X52600613Y-64997598D01*
X52624999Y-65000000D01*
X71534001Y-65000000D01*
X71558387Y-64997598D01*
X71581836Y-64990485D01*
X71603447Y-64978934D01*
X71622389Y-64963389D01*
X71637934Y-64944447D01*
X71649485Y-64922836D01*
X71656598Y-64899387D01*
X71659000Y-64875001D01*
X71659000Y-63949000D01*
X72375001Y-63949000D01*
X72399387Y-63946598D01*
X72422836Y-63939485D01*
X72444447Y-63927934D01*
X72463389Y-63912389D01*
X72478934Y-63893447D01*
X72490485Y-63871836D01*
X72497598Y-63848387D01*
X72500000Y-63824001D01*
X72500000Y-60000000D01*
X77500000Y-60000000D01*
X77500000Y-63824001D01*
X77502402Y-63848387D01*
X77509515Y-63871836D01*
X77521066Y-63893447D01*
X77536611Y-63912389D01*
X77555553Y-63927934D01*
X77577164Y-63939485D01*
X77600613Y-63946598D01*
X77624999Y-63949000D01*
X78341000Y-63949000D01*
X78341000Y-64875001D01*
X78343402Y-64899387D01*
X78350515Y-64922836D01*
X78362066Y-64944447D01*
X78377611Y-64963389D01*
X78396553Y-64978934D01*
X78418164Y-64990485D01*
X78441613Y-64997598D01*
X78465999Y-65000000D01*
X97375001Y-65000000D01*
X97399387Y-64997598D01*
X97422836Y-64990485D01*
X97444447Y-64978934D01*
X97463389Y-64963389D01*
X97478934Y-64944447D01*
X97490485Y-64922836D01*
X97497598Y-64899387D01*
X97500000Y-64875001D01*
X97500000Y-48465999D01*
X97497598Y-48441613D01*
X97490485Y-48418164D01*
X97478934Y-48396553D01*
X97463389Y-48377611D01*
X97444447Y-48362066D01*
X97422836Y-48350515D01*
X97399387Y-48343402D01*
X97375001Y-48341000D01*
X95449000Y-48341000D01*
X95449000Y-47624999D01*
X95446598Y-47600613D01*
X95439485Y-47577164D01*
X95427934Y-47555553D01*
X95412389Y-47536611D01*
X95393447Y-47521066D01*
X95371836Y-47509515D01*
X95348387Y-47502402D01*
X95324001Y-47500000D01*
X87500000Y-47500000D01*
X87500000Y-42500000D01*
X95324001Y-42500000D01*
X95348387Y-42497598D01*
X95371836Y-42490485D01*
X95393447Y-42478934D01*
X95412389Y-42463389D01*
X95427934Y-42444447D01*
X95439485Y-42422836D01*
X95446598Y-42399387D01*
X95449000Y-42375001D01*
X95449000Y-41659000D01*
X97375001Y-41659000D01*
X97399387Y-41656598D01*
X97422836Y-41649485D01*
X97444447Y-41637934D01*
X97463389Y-41622389D01*
X97478934Y-41603447D01*
X97490485Y-41581836D01*
X97497598Y-41558387D01*
X97500000Y-41534001D01*
X97500000Y-37624999D01*
X97497598Y-37600613D01*
X97490485Y-37577164D01*
X97478934Y-37555553D01*
X97463389Y-37536611D01*
X97444447Y-37521066D01*
X97422836Y-37509515D01*
X97399387Y-37502402D01*
X97375001Y-37500000D01*
X52624999Y-37500000D01*
X52600613Y-37502402D01*
X52577164Y-37509515D01*
X52555553Y-37521066D01*
X52536611Y-37536611D01*
X52521066Y-37555553D01*
X52509515Y-37577164D01*
X52502402Y-37600613D01*
X52500000Y-37624999D01*
X50000000Y-37624999D01*
X50000000Y-5124999D01*
X52500000Y-5124999D01*
X52500000Y-9034001D01*
X52502402Y-9058387D01*
X52509515Y-9081836D01*
X52521066Y-9103447D01*
X52536611Y-9122389D01*
X52555553Y-9137934D01*
X52577164Y-9149485D01*
X52600613Y-9156598D01*
X52624999Y-9159000D01*
X54551000Y-9159000D01*
X54551000Y-9875001D01*
X54553402Y-9899387D01*
X54560515Y-9922836D01*
X54572066Y-9944447D01*
X54587611Y-9963389D01*
X54606553Y-9978934D01*
X54628164Y-9990485D01*
X54651613Y-9997598D01*
X54675999Y-10000000D01*
X62500000Y-10000000D01*
X62500000Y-15000000D01*
X54675999Y-15000000D01*
X54651613Y-15002402D01*
X54628164Y-15009515D01*
X54606553Y-15021066D01*
X54587611Y-15036611D01*
X54572066Y-15055553D01*
X54560515Y-15077164D01*
X54553402Y-15100613D01*
X54551000Y-15124999D01*
X54551000Y-15841000D01*
X52624999Y-15841000D01*
X52600613Y-15843402D01*
X52577164Y-15850515D01*
X52555553Y-15862066D01*
X52536611Y-15877611D01*
X52521066Y-15896553D01*
X52509515Y-15918164D01*
X52502402Y-15941613D01*
X52500000Y-15965999D01*
X52500000Y-32375001D01*
X52502402Y-32399387D01*
X52509515Y-32422836D01*
X52521066Y-32444447D01*
X52536611Y-32463389D01*
X52555553Y-32478934D01*
X52577164Y-32490485D01*
X52600613Y-32497598D01*
X52624999Y-32500000D01*
X71534001Y-32500000D01*
X71558387Y-32497598D01*
X71581836Y-32490485D01*
X71603447Y-32478934D01*
X71622389Y-32463389D01*
X71637934Y-32444447D01*
X71649485Y-32422836D01*
X71656598Y-32399387D01*
X71659000Y-32375001D01*
X71659000Y-31449000D01*
X72375001Y-31449000D01*
X72399387Y-31446598D01*
X72422836Y-31439485D01*
X72444447Y-31427934D01*
X72463389Y-31412389D01*
X72478934Y-31393447D01*
X72490485Y-31371836D01*
X72497598Y-31348387D01*
X72500000Y-31324001D01*
X72500000Y-27500000D01*
X77500000Y-27500000D01*
X77500000Y-31324001D01*
X77502402Y-31348387D01*
X77509515Y-31371836D01*
X77521066Y-31393447D01*
X77536611Y-31412389D01*
X77555553Y-31427934D01*
X77577164Y-31439485D01*
X77600613Y-31446598D01*
X77624999Y-31449000D01*
X78341000Y-31449000D01*
X78341000Y-32375001D01*
X78343402Y-32399387D01*
X78350515Y-32422836D01*
X78362066Y-32444447D01*
X78377611Y-32463389D01*
X78396553Y-32478934D01*
X78418164Y-32490485D01*
X78441613Y-32497598D01*
X78465999Y-32500000D01*
X97375001Y-32500000D01*
X97399387Y-32497598D01*
X97422836Y-32490485D01*
X97444447Y-32478934D01*
X97463389Y-32463389D01*
X97478934Y-32444447D01*
X97490485Y-32422836D01*
X97497598Y-32399387D01*
X97500000Y-32375001D01*
X97500000Y-15965999D01*
X97497598Y-15941613D01*
X97490485Y-15918164D01*
X97478934Y-15896553D01*
X97463389Y-15877611D01*
X97444447Y-15862066D01*
X97422836Y-15850515D01*
X97399387Y-15843402D01*
X97375001Y-15841000D01*
X95449000Y-15841000D01*
X95449000Y-15124999D01*
X95446598Y-15100613D01*
X95439485Y-15077164D01*
X95427934Y-15055553D01*
X95412389Y-15036611D01*
X95393447Y-15021066D01*
X95371836Y-15009515D01*
X95348387Y-15002402D01*
X95324001Y-15000000D01*
X87500000Y-15000000D01*
X87500000Y-10000000D01*
X95324001Y-10000000D01*
X95348387Y-9997598D01*
X95371836Y-9990485D01*
X95393447Y-9978934D01*
X95412389Y-9963389D01*
X95427934Y-9944447D01*
X95439485Y-9922836D01*
X95446598Y-9899387D01*
X95449000Y-9875001D01*
X95449000Y-9159000D01*
X97375001Y-9159000D01*
X97399387Y-9156598D01*
X97422836Y-9149485D01*
X97444447Y-9137934D01*
X97463389Y-9122389D01*
X97478934Y-9103447D01*
X97490485Y-9081836D01*
X97497598Y-9058387D01*
X97500000Y-9034001D01*
X97500000Y-5124999D01*
X97497598Y-5100613D01*
X97490485Y-5077164D01*
X97478934Y-5055553D01*
X97463389Y-5036611D01*
X97444447Y-5021066D01*
X97422836Y-5009515D01*
X97399387Y-5002402D01*
X97375001Y-5000000D01*
X52624999Y-5000000D01*
X52600613Y-5002402D01*
X52577164Y-5009515D01*
X52555553Y-5021066D01*
X52536611Y-5036611D01*
X52521066Y-5055553D01*
X52509515Y-5077164D01*
X52502402Y-5100613D01*
X52500000Y-5124999D01*
X50000000Y-5124999D01*
X50000000Y27375001D01*
X52500000Y27375001D01*
X52500000Y23465999D01*
X52502402Y23441613D01*
X52509515Y23418164D01*
X52521066Y23396553D01*
X52536611Y23377611D01*
X52555553Y23362066D01*
X52577164Y23350515D01*
X52600613Y23343402D01*
X52624999Y23341000D01*
X54551000Y23341000D01*
X54551000Y22624999D01*
X54553402Y22600613D01*
X54560515Y22577164D01*
X54572066Y22555553D01*
X54587611Y22536611D01*
X54606553Y22521066D01*
X54628164Y22509515D01*
X54651613Y22502402D01*
X54675999Y22500000D01*
X62500000Y22500000D01*
X62500000Y17500000D01*
X54675999Y17500000D01*
X54651613Y17497598D01*
X54628164Y17490485D01*
X54606553Y17478934D01*
X54587611Y17463389D01*
X54572066Y17444447D01*
X54560515Y17422836D01*
X54553402Y17399387D01*
X54551000Y17375001D01*
X54551000Y16659000D01*
X52624999Y16659000D01*
X52600613Y16656598D01*
X52577164Y16649485D01*
X52555553Y16637934D01*
X52536611Y16622389D01*
X52521066Y16603447D01*
X52509515Y16581836D01*
X52502402Y16558387D01*
X52500000Y16534001D01*
X52500000Y124999D01*
X52502402Y100613D01*
X52509515Y77164D01*
X52521066Y55553D01*
X52536611Y36611D01*
X52555553Y21066D01*
X52577164Y9515D01*
X52600613Y2402D01*
X52624999Y0D01*
X71534001Y0D01*
X71558387Y2402D01*
X71581836Y9515D01*
X71603447Y21066D01*
X71622389Y36611D01*
X71637934Y55553D01*
X71649485Y77164D01*
X71656598Y100613D01*
X71659000Y124999D01*
X71659000Y1051000D01*
X72375001Y1051000D01*
X72399387Y1053402D01*
X72422836Y1060515D01*
X72444447Y1072066D01*
X72463389Y1087611D01*
X72478934Y1106553D01*
X72490485Y1128164D01*
X72497598Y1151613D01*
X72500000Y1175999D01*
X72500000Y5000000D01*
X77500000Y5000000D01*
X77500000Y1175999D01*
X77502402Y1151613D01*
X77509515Y1128164D01*
X77521066Y1106553D01*
X77536611Y1087611D01*
X77555553Y1072066D01*
X77577164Y1060515D01*
X77600613Y1053402D01*
X77624999Y1051000D01*
X78341000Y1051000D01*
X78341000Y124999D01*
X78343402Y100613D01*
X78350515Y77164D01*
X78362066Y55553D01*
X78377611Y36611D01*
X78396553Y21066D01*
X78418164Y9515D01*
X78441613Y2402D01*
X78465999Y0D01*
X97375001Y0D01*
X97399387Y2402D01*
X97422836Y9515D01*
X97444447Y21066D01*
X97463389Y36611D01*
X97478934Y55553D01*
X97490485Y77164D01*
X97497598Y100613D01*
X97500000Y124999D01*
X97500000Y16534001D01*
X97497598Y16558387D01*
X97490485Y16581836D01*
X97478934Y16603447D01*
X97463389Y16622389D01*
X97444447Y16637934D01*
X97422836Y16649485D01*
X97399387Y16656598D01*
X97375001Y16659000D01*
X95449000Y16659000D01*
X95449000Y17375001D01*
X95446598Y17399387D01*
X95439485Y17422836D01*
X95427934Y17444447D01*
X95412389Y17463389D01*
X95393447Y17478934D01*
X95371836Y17490485D01*
X95348387Y17497598D01*
X95324001Y17500000D01*
X87500000Y17500000D01*
X87500000Y22500000D01*
X95324001Y22500000D01*
X95348387Y22502402D01*
X95371836Y22509515D01*
X95393447Y22521066D01*
X95412389Y22536611D01*
X95427934Y22555553D01*
X95439485Y22577164D01*
X95446598Y22600613D01*
X95449000Y22624999D01*
X95449000Y23341000D01*
X97375001Y23341000D01*
X97399387Y23343402D01*
X97422836Y23350515D01*
X97444447Y23362066D01*
X97463389Y23377611D01*
X97478934Y23396553D01*
X97490485Y23418164D01*
X97497598Y23441613D01*
X97500000Y23465999D01*
X97500000Y27375001D01*
X97497598Y27399387D01*
X97490485Y27422836D01*
X97478934Y27444447D01*
X97463389Y27463389D01*
X97444447Y27478934D01*
X97422836Y27490485D01*
X97399387Y27497598D01*
X97375001Y27500000D01*
X52624999Y27500000D01*
X52600613Y27497598D01*
X52577164Y27490485D01*
X52555553Y27478934D01*
X52536611Y27463389D01*
X52521066Y27444447D01*
X52509515Y27422836D01*
X52502402Y27399387D01*
X52500000Y27375001D01*
X50000000Y27375001D01*
X50000000Y30000000D01*
X100000000Y30000000D01*
X100000000Y-67500000D01*
G37*
M02*
