G04 #@! TF.GenerationSoftware,KiCad,Pcbnew,(5.1.5)-3*
G04 #@! TF.CreationDate,2021-12-07T11:44:26+01:00*
G04 #@! TF.ProjectId,stitched capcoupler,73746974-6368-4656-9420-636170636f75,rev?*
G04 #@! TF.SameCoordinates,Original*
G04 #@! TF.FileFunction,Soldermask,Top*
G04 #@! TF.FilePolarity,Negative*
%FSLAX46Y46*%
G04 Gerber Fmt 4.6, Leading zero omitted, Abs format (unit mm)*
G04 Created by KiCad (PCBNEW (5.1.5)-3) date 2021-12-07 11:44:26*
%MOMM*%
%LPD*%
G04 APERTURE LIST*
%ADD10C,0.100000*%
G04 APERTURE END LIST*
D10*
G36*
X100000000Y-67500000D02*
G01*
X78465999Y-67500000D01*
X78441613Y-67502402D01*
X78418164Y-67509515D01*
X78396553Y-67521066D01*
X78377611Y-67536611D01*
X78362066Y-67555553D01*
X78350515Y-67577164D01*
X78343402Y-67600613D01*
X78341000Y-67624999D01*
X78341000Y-68051000D01*
X76739000Y-68051000D01*
X76739000Y-67624999D01*
X76736598Y-67600613D01*
X76729485Y-67577164D01*
X76717934Y-67555553D01*
X76702389Y-67536611D01*
X76683447Y-67521066D01*
X76661836Y-67509515D01*
X76638387Y-67502402D01*
X76614001Y-67500000D01*
X75875999Y-67500000D01*
X75851613Y-67502402D01*
X75828164Y-67509515D01*
X75806553Y-67521066D01*
X75787611Y-67536611D01*
X75772066Y-67555553D01*
X75760515Y-67577164D01*
X75753402Y-67600613D01*
X75751000Y-67624999D01*
X75751000Y-68051000D01*
X74249000Y-68051000D01*
X74249000Y-67624999D01*
X74246598Y-67600613D01*
X74239485Y-67577164D01*
X74227934Y-67555553D01*
X74212389Y-67536611D01*
X74193447Y-67521066D01*
X74171836Y-67509515D01*
X74148387Y-67502402D01*
X74124001Y-67500000D01*
X73385999Y-67500000D01*
X73361613Y-67502402D01*
X73338164Y-67509515D01*
X73316553Y-67521066D01*
X73297611Y-67536611D01*
X73282066Y-67555553D01*
X73270515Y-67577164D01*
X73263402Y-67600613D01*
X73261000Y-67624999D01*
X73261000Y-68051000D01*
X71659000Y-68051000D01*
X71659000Y-67624999D01*
X71656598Y-67600613D01*
X71649485Y-67577164D01*
X71637934Y-67555553D01*
X71622389Y-67536611D01*
X71603447Y-67521066D01*
X71581836Y-67509515D01*
X71558387Y-67502402D01*
X71534001Y-67500000D01*
X50000000Y-67500000D01*
X50000000Y-48465999D01*
X52500000Y-48465999D01*
X52500000Y-64875001D01*
X52502402Y-64899387D01*
X52509515Y-64922836D01*
X52521066Y-64944447D01*
X52536611Y-64963389D01*
X52555553Y-64978934D01*
X52577164Y-64990485D01*
X52600613Y-64997598D01*
X52624999Y-65000000D01*
X71534001Y-65000000D01*
X71558387Y-64997598D01*
X71581836Y-64990485D01*
X71603447Y-64978934D01*
X71622389Y-64963389D01*
X71637934Y-64944447D01*
X71649485Y-64922836D01*
X71656598Y-64899387D01*
X71659000Y-64875001D01*
X71659000Y-63949000D01*
X72375001Y-63949000D01*
X72399387Y-63946598D01*
X72422836Y-63939485D01*
X72444447Y-63927934D01*
X72463389Y-63912389D01*
X72478934Y-63893447D01*
X72490485Y-63871836D01*
X72497598Y-63848387D01*
X72500000Y-63824001D01*
X72500000Y-52045256D01*
X77500000Y-52045256D01*
X77500000Y-63824001D01*
X77502402Y-63848387D01*
X77509515Y-63871836D01*
X77521066Y-63893447D01*
X77536611Y-63912389D01*
X77555553Y-63927934D01*
X77577164Y-63939485D01*
X77600613Y-63946598D01*
X77624999Y-63949000D01*
X78341000Y-63949000D01*
X78341000Y-64875001D01*
X78343402Y-64899387D01*
X78350515Y-64922836D01*
X78362066Y-64944447D01*
X78377611Y-64963389D01*
X78396553Y-64978934D01*
X78418164Y-64990485D01*
X78441613Y-64997598D01*
X78465999Y-65000000D01*
X97375001Y-65000000D01*
X97399387Y-64997598D01*
X97422836Y-64990485D01*
X97444447Y-64978934D01*
X97463389Y-64963389D01*
X97478934Y-64944447D01*
X97490485Y-64922836D01*
X97497598Y-64899387D01*
X97500000Y-64875001D01*
X97500000Y-48465999D01*
X97497598Y-48441613D01*
X97490485Y-48418164D01*
X97478934Y-48396553D01*
X97463389Y-48377611D01*
X97444447Y-48362066D01*
X97422836Y-48350515D01*
X97399387Y-48343402D01*
X97375001Y-48341000D01*
X95423181Y-48341000D01*
X95412389Y-48327850D01*
X95393447Y-48312305D01*
X95371836Y-48300754D01*
X95348387Y-48293641D01*
X95324001Y-48291239D01*
X95307481Y-48292336D01*
X94667918Y-48377611D01*
X90000000Y-49000000D01*
X80058546Y-49000000D01*
X80034160Y-49002402D01*
X80010711Y-49009515D01*
X79989100Y-49021066D01*
X79962519Y-49044977D01*
X77528972Y-51965234D01*
X77515206Y-51985505D01*
X77505658Y-52008073D01*
X77500697Y-52032069D01*
X77500000Y-52045256D01*
X72500000Y-52045256D01*
X72497598Y-52020870D01*
X72490485Y-51997421D01*
X72478934Y-51975810D01*
X72471028Y-51965234D01*
X70037481Y-49044977D01*
X70020024Y-49027780D01*
X69999548Y-49014320D01*
X69976839Y-49005113D01*
X69941454Y-49000000D01*
X59000000Y-49000000D01*
X55928702Y-48291239D01*
X54704106Y-48008640D01*
X54679805Y-48005497D01*
X54655357Y-48007155D01*
X54631702Y-48013551D01*
X54609750Y-48024439D01*
X54590343Y-48039400D01*
X54574229Y-48057860D01*
X54562025Y-48079109D01*
X54554201Y-48102331D01*
X54551000Y-48130438D01*
X54551000Y-48341000D01*
X52624999Y-48341000D01*
X52600613Y-48343402D01*
X52577164Y-48350515D01*
X52555553Y-48362066D01*
X52536611Y-48377611D01*
X52521066Y-48396553D01*
X52509515Y-48418164D01*
X52502402Y-48441613D01*
X52500000Y-48465999D01*
X50000000Y-48465999D01*
X50000000Y-37624999D01*
X52500000Y-37624999D01*
X52500000Y-41534001D01*
X52502402Y-41558387D01*
X52509515Y-41581836D01*
X52521066Y-41603447D01*
X52536611Y-41622389D01*
X52555553Y-41637934D01*
X52577164Y-41649485D01*
X52600613Y-41656598D01*
X52624999Y-41659000D01*
X54551000Y-41659000D01*
X54551000Y-41869562D01*
X54553402Y-41893948D01*
X54560515Y-41917397D01*
X54572066Y-41939008D01*
X54587611Y-41957950D01*
X54606553Y-41973495D01*
X54628164Y-41985046D01*
X54651613Y-41992159D01*
X54675999Y-41994561D01*
X54704106Y-41991360D01*
X56848598Y-41496477D01*
X59000000Y-41000000D01*
X90000000Y-41000000D01*
X90006048Y-41001210D01*
X90006052Y-41001210D01*
X95299487Y-42059897D01*
X95323870Y-42062324D01*
X95348259Y-42059948D01*
X95371715Y-42052859D01*
X95393338Y-42041330D01*
X95412296Y-42025805D01*
X95427861Y-42006879D01*
X95439435Y-41985281D01*
X95446573Y-41961839D01*
X95449000Y-41937325D01*
X95449000Y-41659000D01*
X97375001Y-41659000D01*
X97399387Y-41656598D01*
X97422836Y-41649485D01*
X97444447Y-41637934D01*
X97463389Y-41622389D01*
X97478934Y-41603447D01*
X97490485Y-41581836D01*
X97497598Y-41558387D01*
X97500000Y-41534001D01*
X97500000Y-37624999D01*
X97497598Y-37600613D01*
X97490485Y-37577164D01*
X97478934Y-37555553D01*
X97463389Y-37536611D01*
X97444447Y-37521066D01*
X97422836Y-37509515D01*
X97399387Y-37502402D01*
X97375001Y-37500000D01*
X52624999Y-37500000D01*
X52600613Y-37502402D01*
X52577164Y-37509515D01*
X52555553Y-37521066D01*
X52536611Y-37536611D01*
X52521066Y-37555553D01*
X52509515Y-37577164D01*
X52502402Y-37600613D01*
X52500000Y-37624999D01*
X50000000Y-37624999D01*
X50000000Y-15965999D01*
X52500000Y-15965999D01*
X52500000Y-32375001D01*
X52502402Y-32399387D01*
X52509515Y-32422836D01*
X52521066Y-32444447D01*
X52536611Y-32463389D01*
X52555553Y-32478934D01*
X52577164Y-32490485D01*
X52600613Y-32497598D01*
X52624999Y-32500000D01*
X71534001Y-32500000D01*
X71558387Y-32497598D01*
X71581836Y-32490485D01*
X71603447Y-32478934D01*
X71622389Y-32463389D01*
X71637934Y-32444447D01*
X71649485Y-32422836D01*
X71656598Y-32399387D01*
X71659000Y-32375001D01*
X71659000Y-31449000D01*
X72375001Y-31449000D01*
X72399387Y-31446598D01*
X72422836Y-31439485D01*
X72444447Y-31427934D01*
X72463389Y-31412389D01*
X72478934Y-31393447D01*
X72490485Y-31371836D01*
X72497598Y-31348387D01*
X72500000Y-31324001D01*
X72500000Y-19545256D01*
X77500000Y-19545256D01*
X77500000Y-31324001D01*
X77502402Y-31348387D01*
X77509515Y-31371836D01*
X77521066Y-31393447D01*
X77536611Y-31412389D01*
X77555553Y-31427934D01*
X77577164Y-31439485D01*
X77600613Y-31446598D01*
X77624999Y-31449000D01*
X78341000Y-31449000D01*
X78341000Y-32375001D01*
X78343402Y-32399387D01*
X78350515Y-32422836D01*
X78362066Y-32444447D01*
X78377611Y-32463389D01*
X78396553Y-32478934D01*
X78418164Y-32490485D01*
X78441613Y-32497598D01*
X78465999Y-32500000D01*
X97375001Y-32500000D01*
X97399387Y-32497598D01*
X97422836Y-32490485D01*
X97444447Y-32478934D01*
X97463389Y-32463389D01*
X97478934Y-32444447D01*
X97490485Y-32422836D01*
X97497598Y-32399387D01*
X97500000Y-32375001D01*
X97500000Y-15965999D01*
X97497598Y-15941613D01*
X97490485Y-15918164D01*
X97478934Y-15896553D01*
X97463389Y-15877611D01*
X97444447Y-15862066D01*
X97422836Y-15850515D01*
X97399387Y-15843402D01*
X97375001Y-15841000D01*
X95423181Y-15841000D01*
X95412389Y-15827850D01*
X95393447Y-15812305D01*
X95371836Y-15800754D01*
X95348387Y-15793641D01*
X95324001Y-15791239D01*
X95307481Y-15792336D01*
X94667918Y-15877611D01*
X90000000Y-16500000D01*
X80058546Y-16500000D01*
X80034160Y-16502402D01*
X80010711Y-16509515D01*
X79989100Y-16521066D01*
X79962519Y-16544977D01*
X77528972Y-19465234D01*
X77515206Y-19485505D01*
X77505658Y-19508073D01*
X77500697Y-19532069D01*
X77500000Y-19545256D01*
X72500000Y-19545256D01*
X72497598Y-19520870D01*
X72490485Y-19497421D01*
X72478934Y-19475810D01*
X72471028Y-19465234D01*
X70037481Y-16544977D01*
X70020024Y-16527780D01*
X69999548Y-16514320D01*
X69976839Y-16505113D01*
X69941454Y-16500000D01*
X59000000Y-16500000D01*
X55928702Y-15791239D01*
X54704106Y-15508640D01*
X54679805Y-15505497D01*
X54655357Y-15507155D01*
X54631702Y-15513551D01*
X54609750Y-15524439D01*
X54590343Y-15539400D01*
X54574229Y-15557860D01*
X54562025Y-15579109D01*
X54554201Y-15602331D01*
X54551000Y-15630438D01*
X54551000Y-15841000D01*
X52624999Y-15841000D01*
X52600613Y-15843402D01*
X52577164Y-15850515D01*
X52555553Y-15862066D01*
X52536611Y-15877611D01*
X52521066Y-15896553D01*
X52509515Y-15918164D01*
X52502402Y-15941613D01*
X52500000Y-15965999D01*
X50000000Y-15965999D01*
X50000000Y-5124999D01*
X52500000Y-5124999D01*
X52500000Y-9034001D01*
X52502402Y-9058387D01*
X52509515Y-9081836D01*
X52521066Y-9103447D01*
X52536611Y-9122389D01*
X52555553Y-9137934D01*
X52577164Y-9149485D01*
X52600613Y-9156598D01*
X52624999Y-9159000D01*
X54551000Y-9159000D01*
X54551000Y-9369562D01*
X54553402Y-9393948D01*
X54560515Y-9417397D01*
X54572066Y-9439008D01*
X54587611Y-9457950D01*
X54606553Y-9473495D01*
X54628164Y-9485046D01*
X54651613Y-9492159D01*
X54675999Y-9494561D01*
X54704106Y-9491360D01*
X56848597Y-8996478D01*
X59000000Y-8500000D01*
X90000000Y-8500000D01*
X90006048Y-8501210D01*
X90006052Y-8501210D01*
X95299487Y-9559897D01*
X95323870Y-9562324D01*
X95348259Y-9559948D01*
X95371715Y-9552859D01*
X95393338Y-9541330D01*
X95412296Y-9525805D01*
X95427861Y-9506879D01*
X95439435Y-9485281D01*
X95446573Y-9461839D01*
X95449000Y-9437325D01*
X95449000Y-9159000D01*
X97375001Y-9159000D01*
X97399387Y-9156598D01*
X97422836Y-9149485D01*
X97444447Y-9137934D01*
X97463389Y-9122389D01*
X97478934Y-9103447D01*
X97490485Y-9081836D01*
X97497598Y-9058387D01*
X97500000Y-9034001D01*
X97500000Y-5124999D01*
X97497598Y-5100613D01*
X97490485Y-5077164D01*
X97478934Y-5055553D01*
X97463389Y-5036611D01*
X97444447Y-5021066D01*
X97422836Y-5009515D01*
X97399387Y-5002402D01*
X97375001Y-5000000D01*
X52624999Y-5000000D01*
X52600613Y-5002402D01*
X52577164Y-5009515D01*
X52555553Y-5021066D01*
X52536611Y-5036611D01*
X52521066Y-5055553D01*
X52509515Y-5077164D01*
X52502402Y-5100613D01*
X52500000Y-5124999D01*
X50000000Y-5124999D01*
X50000000Y16534001D01*
X52500000Y16534001D01*
X52500000Y124999D01*
X52502402Y100613D01*
X52509515Y77164D01*
X52521066Y55553D01*
X52536611Y36611D01*
X52555553Y21066D01*
X52577164Y9515D01*
X52600613Y2402D01*
X52624999Y0D01*
X71534001Y0D01*
X71558387Y2402D01*
X71581836Y9515D01*
X71603447Y21066D01*
X71622389Y36611D01*
X71637934Y55553D01*
X71649485Y77164D01*
X71656598Y100613D01*
X71659000Y124999D01*
X71659000Y1051000D01*
X72375001Y1051000D01*
X72399387Y1053402D01*
X72422836Y1060515D01*
X72444447Y1072066D01*
X72463389Y1087611D01*
X72478934Y1106553D01*
X72490485Y1128164D01*
X72497598Y1151613D01*
X72500000Y1175999D01*
X72500000Y12954744D01*
X77500000Y12954744D01*
X77500000Y1175999D01*
X77502402Y1151613D01*
X77509515Y1128164D01*
X77521066Y1106553D01*
X77536611Y1087611D01*
X77555553Y1072066D01*
X77577164Y1060515D01*
X77600613Y1053402D01*
X77624999Y1051000D01*
X78341000Y1051000D01*
X78341000Y124999D01*
X78343402Y100613D01*
X78350515Y77164D01*
X78362066Y55553D01*
X78377611Y36611D01*
X78396553Y21066D01*
X78418164Y9515D01*
X78441613Y2402D01*
X78465999Y0D01*
X97375001Y0D01*
X97399387Y2402D01*
X97422836Y9515D01*
X97444447Y21066D01*
X97463389Y36611D01*
X97478934Y55553D01*
X97490485Y77164D01*
X97497598Y100613D01*
X97500000Y124999D01*
X97500000Y16534001D01*
X97497598Y16558387D01*
X97490485Y16581836D01*
X97478934Y16603447D01*
X97463389Y16622389D01*
X97444447Y16637934D01*
X97422836Y16649485D01*
X97399387Y16656598D01*
X97375001Y16659000D01*
X95423181Y16659000D01*
X95412389Y16672150D01*
X95393447Y16687695D01*
X95371836Y16699246D01*
X95348387Y16706359D01*
X95324001Y16708761D01*
X95307481Y16707664D01*
X94667918Y16622389D01*
X90000000Y16000000D01*
X80058546Y16000000D01*
X80034160Y15997598D01*
X80010711Y15990485D01*
X79989100Y15978934D01*
X79962519Y15955023D01*
X77528972Y13034766D01*
X77515206Y13014495D01*
X77505658Y12991927D01*
X77500697Y12967931D01*
X77500000Y12954744D01*
X72500000Y12954744D01*
X72497598Y12979130D01*
X72490485Y13002579D01*
X72478934Y13024190D01*
X72471028Y13034766D01*
X70037481Y15955023D01*
X70020024Y15972220D01*
X69999548Y15985680D01*
X69976839Y15994887D01*
X69941454Y16000000D01*
X59000000Y16000000D01*
X55928702Y16708761D01*
X54704106Y16991360D01*
X54679805Y16994503D01*
X54655357Y16992845D01*
X54631702Y16986449D01*
X54609750Y16975561D01*
X54590343Y16960600D01*
X54574229Y16942140D01*
X54562025Y16920891D01*
X54554201Y16897669D01*
X54551000Y16869562D01*
X54551000Y16659000D01*
X52624999Y16659000D01*
X52600613Y16656598D01*
X52577164Y16649485D01*
X52555553Y16637934D01*
X52536611Y16622389D01*
X52521066Y16603447D01*
X52509515Y16581836D01*
X52502402Y16558387D01*
X52500000Y16534001D01*
X50000000Y16534001D01*
X50000000Y27375001D01*
X52500000Y27375001D01*
X52500000Y23465999D01*
X52502402Y23441613D01*
X52509515Y23418164D01*
X52521066Y23396553D01*
X52536611Y23377611D01*
X52555553Y23362066D01*
X52577164Y23350515D01*
X52600613Y23343402D01*
X52624999Y23341000D01*
X54551000Y23341000D01*
X54551000Y23130438D01*
X54553402Y23106052D01*
X54560515Y23082603D01*
X54572066Y23060992D01*
X54587611Y23042050D01*
X54606553Y23026505D01*
X54628164Y23014954D01*
X54651613Y23007841D01*
X54675999Y23005439D01*
X54704106Y23008640D01*
X56848597Y23503522D01*
X59000000Y24000000D01*
X90000000Y24000000D01*
X90006048Y23998790D01*
X90006052Y23998790D01*
X95299487Y22940103D01*
X95323870Y22937676D01*
X95348259Y22940052D01*
X95371715Y22947141D01*
X95393338Y22958670D01*
X95412296Y22974195D01*
X95427861Y22993121D01*
X95439435Y23014719D01*
X95446573Y23038161D01*
X95449000Y23062675D01*
X95449000Y23341000D01*
X97375001Y23341000D01*
X97399387Y23343402D01*
X97422836Y23350515D01*
X97444447Y23362066D01*
X97463389Y23377611D01*
X97478934Y23396553D01*
X97490485Y23418164D01*
X97497598Y23441613D01*
X97500000Y23465999D01*
X97500000Y27375001D01*
X97497598Y27399387D01*
X97490485Y27422836D01*
X97478934Y27444447D01*
X97463389Y27463389D01*
X97444447Y27478934D01*
X97422836Y27490485D01*
X97399387Y27497598D01*
X97375001Y27500000D01*
X52624999Y27500000D01*
X52600613Y27497598D01*
X52577164Y27490485D01*
X52555553Y27478934D01*
X52536611Y27463389D01*
X52521066Y27444447D01*
X52509515Y27422836D01*
X52502402Y27399387D01*
X52500000Y27375001D01*
X50000000Y27375001D01*
X50000000Y30000000D01*
X100000000Y30000000D01*
X100000000Y-67500000D01*
G37*
G36*
X81051000Y-56801000D02*
G01*
X78949000Y-56801000D01*
X78949000Y-53199000D01*
X81051000Y-53199000D01*
X81051000Y-56801000D01*
G37*
G36*
X81051000Y-24301000D02*
G01*
X78949000Y-24301000D01*
X78949000Y-20699000D01*
X81051000Y-20699000D01*
X81051000Y-24301000D01*
G37*
G36*
X81051000Y8199000D02*
G01*
X78949000Y8199000D01*
X78949000Y11801000D01*
X81051000Y11801000D01*
X81051000Y8199000D01*
G37*
M02*
