G04 #@! TF.GenerationSoftware,KiCad,Pcbnew,(5.1.5)-3*
G04 #@! TF.CreationDate,2021-12-07T11:44:26+01:00*
G04 #@! TF.ProjectId,stitched capcoupler,73746974-6368-4656-9420-636170636f75,rev?*
G04 #@! TF.SameCoordinates,Original*
G04 #@! TF.FileFunction,Copper,L2,Bot*
G04 #@! TF.FilePolarity,Positive*
%FSLAX46Y46*%
G04 Gerber Fmt 4.6, Leading zero omitted, Abs format (unit mm)*
G04 Created by KiCad (PCBNEW (5.1.5)-3) date 2021-12-07 11:44:26*
%MOMM*%
%LPD*%
G04 APERTURE LIST*
%ADD10R,1.500000X4.000000*%
%ADD11R,4.000000X1.500000*%
%ADD12C,0.800000*%
%ADD13C,0.254000*%
G04 APERTURE END LIST*
D10*
X72460000Y-1000000D03*
X77540000Y-1000000D03*
D11*
X97500000Y22540000D03*
X97500000Y17460000D03*
X52500000Y22540000D03*
X52500000Y17460000D03*
D10*
X72460000Y-33500000D03*
X77540000Y-33500000D03*
D11*
X97500000Y-9960000D03*
X97500000Y-15040000D03*
X52500000Y-9960000D03*
X52500000Y-15040000D03*
X52500000Y-47540000D03*
X52500000Y-42460000D03*
X97500000Y-47540000D03*
X97500000Y-42460000D03*
D10*
X77540000Y-66000000D03*
X72460000Y-66000000D03*
D12*
X87500000Y-20000000D03*
X62500000Y-27500000D03*
X65000000Y-30000000D03*
X87500000Y-25000000D03*
X90000000Y-27500000D03*
X90000000Y-32500000D03*
X90000000Y-25000000D03*
X90000000Y-30000000D03*
X87500000Y-30000000D03*
X85000000Y-30000000D03*
X82500000Y-30000000D03*
X67500000Y-30000000D03*
X62500000Y-25000000D03*
X87500000Y-27500000D03*
X62500000Y-30000000D03*
X70000000Y-30000000D03*
X62500000Y-32500000D03*
X87500000Y-22500000D03*
X80000000Y-30000000D03*
X62500000Y-22500000D03*
X62500000Y-20000000D03*
X57500000Y-32500000D03*
X67500000Y-32500000D03*
X80000000Y-32500000D03*
X65000000Y-32500000D03*
X92500000Y-32500000D03*
X67500000Y-27500000D03*
X87500000Y-32500000D03*
X82500000Y-22500000D03*
X82500000Y-27500000D03*
X82500000Y-20000000D03*
X70000000Y-27500000D03*
X70000000Y-32500000D03*
X55000000Y-32500000D03*
X82500000Y-32500000D03*
X82500000Y-25000000D03*
X85000000Y-27500000D03*
X85000000Y-32500000D03*
X65000000Y-27500000D03*
X95000000Y-32500000D03*
X85000000Y-5000000D03*
X60000000Y-5000000D03*
X60000000Y-20000000D03*
X60000000Y-32500000D03*
X90000000Y-5000000D03*
X72500000Y-5000000D03*
X62500000Y-5000000D03*
X57500000Y-5000000D03*
X55000000Y-5000000D03*
X52500000Y-5000000D03*
X60000000Y-22500000D03*
X97500000Y-22500000D03*
X60000000Y-25000000D03*
X60000000Y-30000000D03*
X97500000Y-30000000D03*
X97500000Y-25000000D03*
X95000000Y-5000000D03*
X87500000Y-5000000D03*
X65000000Y-5000000D03*
X90000000Y-20000000D03*
X90000000Y-22500000D03*
X60000000Y-27500000D03*
X70000000Y-5000000D03*
X97500000Y-20000000D03*
X97500000Y-5000000D03*
X97500000Y-27500000D03*
X92500000Y-5000000D03*
X77500000Y-5000000D03*
X82500000Y-5000000D03*
X80000000Y-5000000D03*
X75000000Y-5000000D03*
X67500000Y-5000000D03*
X97500000Y-17500000D03*
X75000000Y-7500000D03*
X67500000Y-17500000D03*
X55000000Y-7500000D03*
X85000000Y-17500000D03*
X57500000Y-17500000D03*
X62500000Y-7500000D03*
X55000000Y-17500000D03*
X57500000Y-7500000D03*
X52500000Y-17500000D03*
X80000000Y-7500000D03*
X52500000Y-20000000D03*
X60000000Y-7500000D03*
X80000000Y-17500000D03*
X52500000Y-22500000D03*
X85000000Y-7500000D03*
X92500000Y-17500000D03*
X87500000Y-17500000D03*
X52500000Y-7500000D03*
X90000000Y-17500000D03*
X67500000Y-7500000D03*
X60000000Y-17500000D03*
X52500000Y-25000000D03*
X62500000Y-17500000D03*
X52500000Y-30000000D03*
X70000000Y-7500000D03*
X90000000Y-7500000D03*
X70000000Y-17500000D03*
X72500000Y-7500000D03*
X95000000Y-17500000D03*
X52500000Y-27500000D03*
X97500000Y-32500000D03*
X82500000Y-17500000D03*
X52500000Y-32500000D03*
X95000000Y-7500000D03*
X97500000Y-7500000D03*
X92500000Y-7500000D03*
X65000000Y-7500000D03*
X82500000Y-7500000D03*
X77500000Y-7500000D03*
X87500000Y-7500000D03*
X51000000Y-7500000D03*
X65000000Y-17500000D03*
X87500000Y12500000D03*
X62500000Y5000000D03*
X65000000Y2500000D03*
X87500000Y7500000D03*
X90000000Y5000000D03*
X90000000Y0D03*
X90000000Y7500000D03*
X90000000Y2500000D03*
X87500000Y2500000D03*
X85000000Y2500000D03*
X82500000Y2500000D03*
X67500000Y2500000D03*
X62500000Y7500000D03*
X87500000Y5000000D03*
X62500000Y2500000D03*
X70000000Y2500000D03*
X62500000Y0D03*
X87500000Y10000000D03*
X80000000Y2500000D03*
X62500000Y10000000D03*
X62500000Y12500000D03*
X57500000Y0D03*
X67500000Y0D03*
X80000000Y0D03*
X65000000Y0D03*
X92500000Y0D03*
X67500000Y5000000D03*
X87500000Y0D03*
X82500000Y10000000D03*
X82500000Y5000000D03*
X82500000Y12500000D03*
X70000000Y5000000D03*
X70000000Y0D03*
X55000000Y0D03*
X82500000Y0D03*
X82500000Y7500000D03*
X85000000Y5000000D03*
X85000000Y0D03*
X65000000Y5000000D03*
X95000000Y0D03*
X85000000Y27500000D03*
X60000000Y27500000D03*
X60000000Y12500000D03*
X60000000Y0D03*
X90000000Y27500000D03*
X72500000Y27500000D03*
X62500000Y27500000D03*
X57500000Y27500000D03*
X55000000Y27500000D03*
X52500000Y27500000D03*
X60000000Y10000000D03*
X97500000Y10000000D03*
X60000000Y7500000D03*
X60000000Y2500000D03*
X97500000Y2500000D03*
X97500000Y7500000D03*
X95000000Y27500000D03*
X87500000Y27500000D03*
X65000000Y27500000D03*
X90000000Y12500000D03*
X90000000Y10000000D03*
X60000000Y5000000D03*
X70000000Y27500000D03*
X97500000Y12500000D03*
X97500000Y27500000D03*
X97500000Y5000000D03*
X92500000Y27500000D03*
X77500000Y27500000D03*
X82500000Y27500000D03*
X80000000Y27500000D03*
X75000000Y27500000D03*
X67500000Y27500000D03*
X97500000Y15000000D03*
X75000000Y25000000D03*
X67500000Y15000000D03*
X55000000Y25000000D03*
X85000000Y15000000D03*
X57500000Y15000000D03*
X62500000Y25000000D03*
X55000000Y15000000D03*
X57500000Y25000000D03*
X52500000Y15000000D03*
X80000000Y25000000D03*
X52500000Y12500000D03*
X60000000Y25000000D03*
X80000000Y15000000D03*
X52500000Y10000000D03*
X85000000Y25000000D03*
X92500000Y15000000D03*
X87500000Y15000000D03*
X52500000Y25000000D03*
X90000000Y15000000D03*
X67500000Y25000000D03*
X60000000Y15000000D03*
X52500000Y7500000D03*
X62500000Y15000000D03*
X52500000Y2500000D03*
X70000000Y25000000D03*
X90000000Y25000000D03*
X70000000Y15000000D03*
X72500000Y25000000D03*
X95000000Y15000000D03*
X52500000Y5000000D03*
X97500000Y0D03*
X82500000Y15000000D03*
X52500000Y0D03*
X95000000Y25000000D03*
X97500000Y25000000D03*
X92500000Y25000000D03*
X65000000Y25000000D03*
X82500000Y25000000D03*
X77500000Y25000000D03*
X87500000Y25000000D03*
X51000000Y25000000D03*
X65000000Y15000000D03*
X52000000Y-35000000D03*
X53000000Y-35000000D03*
X54000000Y-35000000D03*
X55000000Y-35000000D03*
X56000000Y-35000000D03*
X57000000Y-35000000D03*
X58000000Y-35000000D03*
X59000000Y-35000000D03*
X60000000Y-35000000D03*
X61000000Y-35000000D03*
X62000000Y-35000000D03*
X63000000Y-35000000D03*
X64000000Y-35000000D03*
X65000000Y-35000000D03*
X66000000Y-35000000D03*
X67000000Y-35000000D03*
X68000000Y-35000000D03*
X69000000Y-35000000D03*
X70000000Y-35000000D03*
X71000000Y-35000000D03*
X72000000Y-35000000D03*
X79600000Y-2400000D03*
X80600000Y-2400000D03*
X81600000Y-2400000D03*
X82600000Y-2400000D03*
X83600000Y-2400000D03*
X84600000Y-2400000D03*
X85600000Y-2400000D03*
X86600000Y-2400000D03*
X87600000Y-2400000D03*
X88600000Y-2400000D03*
X89600000Y-2400000D03*
X90600000Y-2400000D03*
X91600000Y-2400000D03*
X92600000Y-2400000D03*
X93600000Y-2400000D03*
X94600000Y-2400000D03*
X95600000Y-2400000D03*
X96600000Y-2400000D03*
X97600000Y-2400000D03*
X98600000Y-2400000D03*
X78600000Y-2400000D03*
X72000000Y-2400000D03*
X71000000Y-2400000D03*
X70000000Y-2400000D03*
X69000000Y-2400000D03*
X68000000Y-2400000D03*
X67000000Y-2400000D03*
X66000000Y-2400000D03*
X65000000Y-2400000D03*
X64000000Y-2400000D03*
X63000000Y-2400000D03*
X62000000Y-2400000D03*
X61000000Y-2400000D03*
X60000000Y-2400000D03*
X59000000Y-2400000D03*
X58000000Y-2400000D03*
X57000000Y-2400000D03*
X56000000Y-2400000D03*
X55000000Y-2400000D03*
X54000000Y-2400000D03*
X53000000Y-2400000D03*
X52000000Y-2400000D03*
X51000000Y-2400000D03*
X51000000Y-35000000D03*
X99000000Y-35000000D03*
X98000000Y-35000000D03*
X97000000Y-35000000D03*
X96000000Y-35000000D03*
X95000000Y-35000000D03*
X94000000Y-35000000D03*
X93000000Y-35000000D03*
X92000000Y-35000000D03*
X91000000Y-35000000D03*
X90000000Y-35000000D03*
X89000000Y-35000000D03*
X88000000Y-35000000D03*
X87000000Y-35000000D03*
X86000000Y-35000000D03*
X85000000Y-35000000D03*
X84000000Y-35000000D03*
X83000000Y-35000000D03*
X82000000Y-35000000D03*
X81000000Y-35000000D03*
X80000000Y-35000000D03*
X79000000Y-35000000D03*
X51000000Y-40000000D03*
X55000000Y-40000000D03*
X60000000Y-40000000D03*
X65000000Y-40000000D03*
X70000000Y-40000000D03*
X75000000Y-40000000D03*
X80000000Y-40000000D03*
X85000000Y-40000000D03*
X90000000Y-40000000D03*
X95000000Y-40000000D03*
X95000000Y-50000000D03*
X90000000Y-50000000D03*
X85000000Y-50000000D03*
X80000000Y-50000000D03*
X70000000Y-50000000D03*
X65000000Y-50000000D03*
X60000000Y-50000000D03*
X55000000Y-50000000D03*
X52500000Y-40000000D03*
X57500000Y-40000000D03*
X62500000Y-40000000D03*
X67500000Y-40000000D03*
X72500000Y-40000000D03*
X77500000Y-40000000D03*
X82500000Y-40000000D03*
X87500000Y-40000000D03*
X92500000Y-40000000D03*
X97500000Y-40000000D03*
X97500000Y-50000000D03*
X92500000Y-50000000D03*
X87500000Y-50000000D03*
X82500000Y-50000000D03*
X67500000Y-50000000D03*
X62500000Y-50000000D03*
X57500000Y-50000000D03*
X52500000Y-50000000D03*
X52500000Y-52500000D03*
X52500000Y-55000000D03*
X52500000Y-57500000D03*
X52500000Y-62500000D03*
X52500000Y-60000000D03*
X52500000Y-65000000D03*
X97500000Y-65000000D03*
X97500000Y-62500000D03*
X97500000Y-60000000D03*
X97500000Y-57500000D03*
X97500000Y-55000000D03*
X97500000Y-52500000D03*
X97500000Y-37500000D03*
X95000000Y-37500000D03*
X92500000Y-37500000D03*
X90000000Y-37500000D03*
X87500000Y-37500000D03*
X85000000Y-37500000D03*
X82500000Y-37500000D03*
X80000000Y-37500000D03*
X77500000Y-37500000D03*
X75000000Y-37500000D03*
X72500000Y-37500000D03*
X70000000Y-37500000D03*
X67500000Y-37500000D03*
X65000000Y-37500000D03*
X62500000Y-37500000D03*
X60000000Y-37500000D03*
X57500000Y-37500000D03*
X55000000Y-37500000D03*
X52500000Y-37500000D03*
X60000000Y-52500000D03*
X60000000Y-55000000D03*
X60000000Y-57500000D03*
X60000000Y-60000000D03*
X60000000Y-62500000D03*
X60000000Y-65000000D03*
X90000000Y-52500000D03*
X90000000Y-55000000D03*
X90000000Y-57500000D03*
X90000000Y-60000000D03*
X90000000Y-62500000D03*
X90000000Y-65000000D03*
X87500000Y-62500000D03*
X85000000Y-62500000D03*
X82500000Y-62500000D03*
X80000000Y-62500000D03*
X70000000Y-62500000D03*
X67500000Y-62500000D03*
X65000000Y-62500000D03*
X62500000Y-62500000D03*
X62500000Y-52500000D03*
X62500000Y-55000000D03*
X62500000Y-57500000D03*
X62500000Y-60000000D03*
X62500000Y-65000000D03*
X87500000Y-60000000D03*
X87500000Y-57500000D03*
X87500000Y-55000000D03*
X87500000Y-52500000D03*
X85000000Y-60000000D03*
X82500000Y-60000000D03*
X70000000Y-60000000D03*
X67500000Y-60000000D03*
X65000000Y-60000000D03*
X55000000Y-65000000D03*
X57500000Y-65000000D03*
X65000000Y-65000000D03*
X67500000Y-65000000D03*
X70000000Y-65000000D03*
X80000000Y-65000000D03*
X82500000Y-65000000D03*
X85000000Y-65000000D03*
X87500000Y-65000000D03*
X92500000Y-65000000D03*
X95000000Y-65000000D03*
X82500000Y-52500000D03*
X82500000Y-55000000D03*
X82500000Y-57500000D03*
D13*
G36*
X99340000Y-66840000D02*
G01*
X50660000Y-66840000D01*
X50660000Y-35660000D01*
X99340001Y-35660000D01*
X99340000Y-66840000D01*
G37*
X99340000Y-66840000D02*
X50660000Y-66840000D01*
X50660000Y-35660000D01*
X99340001Y-35660000D01*
X99340000Y-66840000D01*
G36*
X99340000Y-34340000D02*
G01*
X50660000Y-34340000D01*
X50660000Y-3160000D01*
X99340001Y-3160000D01*
X99340000Y-34340000D01*
G37*
X99340000Y-34340000D02*
X50660000Y-34340000D01*
X50660000Y-3160000D01*
X99340001Y-3160000D01*
X99340000Y-34340000D01*
G36*
X99340000Y-1840000D02*
G01*
X50660000Y-1840000D01*
X50660000Y29340000D01*
X99340001Y29340000D01*
X99340000Y-1840000D01*
G37*
X99340000Y-1840000D02*
X50660000Y-1840000D01*
X50660000Y29340000D01*
X99340001Y29340000D01*
X99340000Y-1840000D01*
M02*
